<svg xmlns="http://www.w3.org/2000/svg" xmlns:xlink="http://www.w3.org/1999/xlink" version="1.1" style="" xml:space="preserve" width="176" height="175.943"><rect id="backgroundrect" width="100%" height="100%" x="0" y="0" fill="none" stroke="none"/>

<g class="currentLayer" style=""><title>Layer 1</title><g id="svg_1" class="" fill="#dadada" fill-opacity="1">
	<path style="" d="M138.465,15.965c-6.344-4.462-13.31-8.063-20.729-10.739l-10.27,47.104l29.362-22.456   L138.465,15.965z" id="svg_2" fill="#dadada" fill-opacity="1"/>
	<path style="" d="M175.662,81.27L175.662,81.27c-0.467-6.172-1.548-12.166-3.227-17.92l-65.097-10.922L77.976,74.884   l82.001,5.36c0.269,2.53,0.413,5.097,0.413,7.697c0,39.917-32.476,72.392-72.393,72.392c-28.382,0-52.987-16.427-64.845-40.266   l95.515,6.244l18.442-14.105L48.595,97.356l-26.571,20.322c-4.108-9.079-6.415-19.14-6.415-29.735   c0-32.164,21.09-59.481,50.164-68.884l-17.05,78.201l29.361-22.457L86.891,0c-5.924,0.074-11.708,0.724-17.297,1.919L69.6,1.894   C29.883,10.378,0,45.731,0,87.942c0,48.524,39.477,88.001,87.998,88.001c48.524,0,88.002-39.477,88.002-88.001L175.662,81.27z" id="svg_3" fill="#dadada" fill-opacity="1"/>
</g></g></svg>