<?xml version="1.0" encoding="iso-8859-1"?>
<!-- Generator: Adobe Illustrator 25.1.0, SVG Export Plug-In . SVG Version: 6.00 Build 0)  -->
<svg version="1.1" id="Layer_1" xmlns="http://www.w3.org/2000/svg" xmlns:xlink="http://www.w3.org/1999/xlink" x="0px" y="0px"
	 viewBox="0 0 176 175.943" style="enable-background:new 0 0 176 175.943;" xml:space="preserve">
<g>
	<path style="fill:#C12F41;" d="M138.465,15.965c-6.344-4.462-13.31-8.063-20.729-10.739l-10.27,47.104l29.362-22.456
		L138.465,15.965z"/>
	<path style="fill:#C12F41;" d="M175.662,81.27L175.662,81.27c-0.467-6.172-1.548-12.166-3.227-17.92l-65.097-10.922L77.976,74.884
		l82.001,5.36c0.269,2.53,0.413,5.097,0.413,7.697c0,39.917-32.476,72.392-72.393,72.392c-28.382,0-52.987-16.427-64.845-40.266
		l95.515,6.244l18.442-14.105L48.595,97.356l-26.571,20.322c-4.108-9.079-6.415-19.14-6.415-29.735
		c0-32.164,21.09-59.481,50.164-68.884l-17.05,78.201l29.361-22.457L86.891,0c-5.924,0.074-11.708,0.724-17.297,1.919L69.6,1.894
		C29.883,10.378,0,45.731,0,87.942c0,48.524,39.477,88.001,87.998,88.001c48.524,0,88.002-39.477,88.002-88.001L175.662,81.27z"/>
</g>
</svg>
