<?xml version="1.0" encoding="iso-8859-1"?>
<!-- Generator: Adobe Illustrator 25.1.0, SVG Export Plug-In . SVG Version: 6.00 Build 0)  -->
<svg version="1.1" id="Layer_1" xmlns="http://www.w3.org/2000/svg" xmlns:xlink="http://www.w3.org/1999/xlink" x="0px" y="0px"
	 viewBox="0 0 662 121.723" style="enable-background:new 0 0 662 121.723;" xml:space="preserve">
<g>
	<path style="fill:#C12F41;" d="M6.416,35.651v-3.129h3.936v3.129c0,11.047,3.792,16.546,12.326,16.546
		c8.533,0,13.701-4.313,13.701-16.546v-9.055h3.982v9.767c0,3.318,1.801,4.74,5.072,4.74s4.884-1.422,4.884-4.74V25.602h4.029
		v10.667c0,3.318,2.086,4.835,5.642,4.835c3.271,0,4.883-1.422,4.883-4.74V24.605h4.03v11.663c0,2.844,1.849,4.693,4.124,4.693
		h2.939c0.521,0,0.996,0.047,0.996,0.663v2.655c0,0.332-0.332,0.521-0.996,0.521h-2.939c-1.801,0-4.408-1.518-4.978-3.935h-0.189
		c-1.423,2.702-4.22,4.077-7.349,4.077c-2.418,0-6.163-0.901-7.349-3.604h-0.142c-1.47,2.418-4.125,3.604-7.064,3.604
		c-2.323,0-5.12-0.854-6.021-3.177c-1.328,8.06-6.021,14.317-17.162,14.317C12.341,56.085,6.416,49.021,6.416,35.651z"/>
	<path style="fill:#C12F41;" d="M99.959,40.962v-6.638c0-6.021-3.224-8.154-6.875-8.154H78.578v-3.84l11.378-11.426h5.405
		L84.125,22.33h8.724c8.249,0,11.283,5.167,11.283,11.994v10.478H75.97c-0.664,0-0.995-0.189-0.995-0.521v-2.655
		c0-0.616,0.474-0.663,0.995-0.663H99.959z"/>
	<path style="fill:#C12F41;" d="M114.799,44.991V24.605h4.029v20.386c0,7.159-2.086,11.094-7.49,11.094
		c-2.607,0-3.65-0.854-3.65-0.854v-3.84c0.948,0.521,1.991,0.806,3.081,0.806C113.377,52.197,114.799,50.538,114.799,44.991z"/>
	<path style="fill:#C12F41;" d="M140.069,44.802h-5.547c-6.637,0-10.477-4.788-10.477-11.094s2.654-12.185,10.477-12.185
		c7.823,0,10.431,5.216,10.431,14.176c0,15.36-3.888,20.386-13.512,20.386c-2.607,0-3.888-0.711-3.888-0.711v-3.84
		c0.9,0.427,2.134,0.758,3.177,0.758C135.897,52.292,138.836,50.775,140.069,44.802z M140.59,40.962
		c0.143-1.612,0.19-3.414,0.19-5.5c0-6.779-2.134-9.956-6.211-9.956c-4.267,0-6.258,3.414-6.258,8.202s2.133,7.254,6.21,7.254
		H140.59z"/>
	<path style="fill:#C12F41;" d="M148.224,5.926h1.802V5.784c-0.427-0.521-0.9-1.47-0.9-2.323c0-1.991,1.185-3.461,3.603-3.461
		c1.849,0,3.413,1.091,3.461,3.366h-1.659c-0.048-0.901-0.711-1.802-1.802-1.802c-0.948,0-1.754,0.759-1.754,2.134
		c0,1.47,0.9,2.228,2.038,2.228h3.414v1.707h-8.202V5.926z M150.168,44.802V10.904h4.029v33.897H150.168z"/>
	<path style="fill:#C12F41;" d="M194.686,44.802c-4.029,0-6.59-2.513-7.68-5.499c-1.47,2.038-3.936,3.84-7.064,3.84
		c-4.788,0-9.86-2.892-9.86-10.004c0-6.068,2.797-10.809,10.051-10.809h10.003v12.658c0,4.693,2.134,5.974,4.551,5.974h1.328
		c0.521,0,0.995,0.047,0.995,0.663v2.655c0,0.332-0.332,0.521-0.995,0.521H194.686z M186.153,33.329V26.17h-6.021
		c-3.414,0-6.021,2.75-6.021,6.969c0,4.22,2.939,6.116,5.831,6.116C182.976,39.255,186.153,37.453,186.153,33.329z M175.154,10.904
		h4.03v5.547h-4.03V10.904z M183.261,10.904h4.029v5.547h-4.029V10.904z"/>
	<path style="fill:#C12F41;" d="M205.497,40.962v-0.189c-1.279-1.28-3.318-4.789-3.318-8.25c0-6.826,4.267-10.999,10.43-10.999
		s8.771,4.979,9.482,9.529h-3.888c-0.379-2.892-2.513-5.547-5.595-5.547c-3.081,0-6.163,2.039-6.163,7.017
		c0,4.979,2.702,8.439,6.543,8.439h9.435v3.84h-26.407c-0.664,0-0.995-0.189-0.995-0.521v-2.655c0-0.616,0.474-0.663,0.995-0.663
		H205.497z"/>
	<path style="fill:#C12F41;" d="M229.725,55.374v-3.84c0.9,0.427,2.465,0.758,3.65,0.758c5.357,0,8.201-1.232,9.387-7.49h-5.595
		c-6.637,0-10.477-4.788-10.477-11.094s2.654-12.185,10.477-12.185c7.823,0,10.431,5.216,10.431,14.176
		c0,1.943-0.095,3.65-0.189,5.263h6.685c0.521,0,0.995,0.047,0.995,0.663v2.655c0,0.332-0.332,0.521-0.995,0.521h-7.159
		c-1.47,8.297-5.452,11.283-12.848,11.283C231.479,56.085,229.725,55.374,229.725,55.374z M237.167,40.962h6.068
		c0.143-1.612,0.19-3.414,0.19-5.5c0-6.779-1.944-9.956-6.211-9.956s-6.258,3.414-6.258,8.202S233.09,40.962,237.167,40.962z"/>
	<path style="fill:#C12F41;" d="M254.094,44.802c-0.664,0-0.995-0.189-0.995-0.521v-2.655c0-0.616,0.474-0.663,0.995-0.663h8.107
		c0.711,0,1.043,0.189,1.043,0.521v2.654c0,0.616-0.475,0.664-1.043,0.664H254.094z"/>
	<path style="fill:#C12F41;" d="M270.308,40.962c-1.186,2.513-4.03,3.84-6.495,3.84h-1.612c-0.664,0-0.995-0.189-0.995-0.521v-2.655
		c0-0.616,0.474-0.663,0.995-0.663h1.564c2.892,0,5.073-1.233,5.215-5.974v-0.38c0-7.396,4.267-11.662,11.094-11.662
		s11.094,4.267,11.094,11.662v0.38c0.095,4.74,2.275,5.974,5.215,5.974h1.564c0.521,0,0.996,0.047,0.996,0.663v2.655
		c0,0.332-0.332,0.521-0.996,0.521h-1.611c-2.466,0-5.311-1.327-6.495-3.84c-1.754,3.413-5.073,5.262-9.767,5.262
		S272.014,44.375,270.308,40.962z M286.996,34.608c0-5.167-2.845-7.728-6.922-7.728s-6.922,2.561-6.922,7.728
		c0,5.168,2.893,7.681,6.922,7.681C284.104,42.289,286.996,39.776,286.996,34.608z"/>
	<path style="fill:#C12F41;" d="M323.882,40.962v-7.491c0-5.072-4.978-8.106-9.529-8.106c-4.077,0-8.296,3.081-8.96,6.637h-3.888
		c0.521-5.688,5.736-10.478,12.848-10.478c7.822,0,13.606,4.741,13.606,12.374v2.134c0,3.271,2.275,4.931,5.073,4.931h2.228
		c0.521,0,0.996,0.047,0.996,0.663v2.655c0,0.332-0.332,0.521-0.996,0.521h-2.275c-1.754,0-4.124-1.186-4.836-3.082h-0.189
		c-0.047,0.664-0.427,1.944-1.327,3.082H297.95c-0.664,0-0.995-0.189-0.995-0.521v-2.655c0-0.616,0.474-0.663,0.995-0.663H323.882z
		 M312.22,49.306h4.029v5.547h-4.029V49.306z"/>
	<path style="fill:#C12F41;" d="M343.37,40.962c-1.186,2.513-4.03,3.84-6.495,3.84h-1.612c-0.664,0-0.995-0.189-0.995-0.521v-2.655
		c0-0.616,0.474-0.663,0.995-0.663h1.564c2.892,0,5.073-1.233,5.215-5.974v-0.38c0-7.396,4.267-11.662,11.094-11.662
		s11.094,4.267,11.094,11.662v0.38c0.095,4.74,2.275,5.974,5.215,5.974h1.564c0.521,0,0.996,0.047,0.996,0.663v2.655
		c0,0.332-0.332,0.521-0.996,0.521h-1.611c-2.466,0-5.31-1.327-6.495-3.84c-1.754,3.413-5.073,5.262-9.767,5.262
		S345.076,44.375,343.37,40.962z M360.057,34.608c0-5.167-2.845-7.728-6.922-7.728s-6.922,2.561-6.922,7.728
		c0,5.168,2.893,7.681,6.922,7.681C357.166,42.289,360.057,39.776,360.057,34.608z"/>
	<path style="fill:#C12F41;" d="M378.928,40.962V10.904h3.982v33.897h-11.899c-0.664,0-0.995-0.189-0.995-0.521v-2.655
		c0-0.616,0.474-0.663,0.995-0.663H378.928z"/>
	<path style="fill:#C12F41;" d="M423.399,44.802c-4.029,0-6.59-2.513-7.68-5.499c-1.47,2.038-3.936,3.84-7.064,3.84
		c-4.788,0-9.86-2.892-9.86-10.004c0-6.068,2.797-10.809,10.051-10.809h10.003v12.658c0,4.693,2.134,5.974,4.551,5.974h1.328
		c0.521,0,0.995,0.047,0.995,0.663v2.655c0,0.332-0.332,0.521-0.995,0.521H423.399z M414.866,33.329V26.17h-6.021
		c-3.414,0-6.021,2.75-6.021,6.969c0,4.22,2.939,6.116,5.831,6.116C411.689,39.255,414.866,37.453,414.866,33.329z M403.867,10.904
		h4.03v5.547h-4.03V10.904z M411.974,10.904h4.029v5.547h-4.029V10.904z"/>
	<path style="fill:#C12F41;" d="M441.985,44.802c-2.655,0-5.879-1.896-6.732-4.125c-1.47,2.798-4.172,4.125-6.921,4.125h-3.604
		c-0.664,0-0.995-0.189-0.995-0.521v-2.655c0-0.616,0.474-0.663,0.995-0.663h3.65c2.134,0,3.982-1.28,3.982-4.741V10.904h3.982
		v23.657c0,3.793,2.561,6.4,5.642,6.4h1.896c0.521,0,0.995,0.047,0.995,0.663v2.655c0,0.332-0.331,0.521-0.995,0.521H441.985z"/>
	<path style="fill:#C12F41;" d="M464.363,44.802c-2.654,0-5.879-1.896-6.731-4.125c-1.47,2.798-4.173,4.125-6.922,4.125h-6.827
		c-0.664,0-0.995-0.189-0.995-0.521v-2.655c0-0.616,0.474-0.663,0.995-0.663h6.874c2.134,0,3.982-1.28,3.982-4.741V24.605h3.982
		v9.956c0,3.793,2.561,6.4,5.642,6.4h2.039c0.521,0,0.995,0.047,0.995,0.663v2.655c0,0.332-0.332,0.521-0.995,0.521H464.363z
		 M450.899,49.306h4.029v5.547h-4.029V49.306z M459.005,49.306h4.03v5.547h-4.03V49.306z"/>
	<path style="fill:#C12F41;" d="M466.403,44.802c-0.664,0-0.995-0.189-0.995-0.521v-2.655c0-0.616,0.474-0.663,0.995-0.663h6.447
		v-0.189c-1.043-0.854-3.081-4.741-3.081-7.586c0-7.538,4.267-11.663,11.094-11.663s11.094,4.268,11.094,11.663
		s-4.03,11.615-11.094,11.615H466.403z M473.941,33.187c0,4.646,2.892,7.87,6.922,7.87c4.029,0,6.922-2.702,6.922-7.87
		s-2.845-7.728-6.922-7.728S473.941,28.54,473.941,33.187z"/>
	<path style="fill:#C12F41;" d="M502.151,44.991V24.605h4.029v20.386c0,7.159-2.086,11.094-7.49,11.094
		c-2.607,0-3.65-0.854-3.65-0.854v-3.84c0.948,0.521,1.991,0.806,3.081,0.806C500.729,52.197,502.151,50.538,502.151,44.991z
		 M502.151,10.904h4.029v5.547h-4.029V10.904z"/>
	<path style="fill:#C12F41;" d="M547.286,44.802c-4.029,0-6.59-2.513-7.68-5.499c-1.47,2.038-3.936,3.84-7.064,3.84
		c-4.788,0-9.86-2.892-9.86-10.004c0-6.068,2.797-10.809,10.051-10.809h10.003v12.658c0,4.693,2.134,5.974,4.551,5.974h1.328
		c0.521,0,0.995,0.047,0.995,0.663v2.655c0,0.332-0.332,0.521-0.995,0.521H547.286z M538.752,33.329V26.17h-6.021
		c-3.414,0-6.021,2.75-6.021,6.969c0,4.22,2.939,6.116,5.831,6.116C535.576,39.255,538.752,37.453,538.752,33.329z M527.753,10.904
		h4.03v5.547h-4.03V10.904z M535.861,10.904h4.029v5.547h-4.029V10.904z"/>
	<path style="fill:#C12F41;" d="M548.615,44.802c-0.664,0-0.995-0.189-0.995-0.521v-2.655c0-0.616,0.474-0.663,0.995-0.663h8.107
		c0.711,0,1.043,0.189,1.043,0.521v2.654c0,0.616-0.475,0.664-1.043,0.664H548.615z"/>
	<path style="fill:#C12F41;" d="M580.711,40.962v-6.638c0-6.021-3.224-8.154-6.875-8.154H559.33v-3.84l11.378-11.426h5.405
		L564.876,22.33h8.724c8.249,0,11.283,5.167,11.283,11.994v10.478h-28.161c-0.664,0-0.995-0.189-0.995-0.521v-2.655
		c0-0.616,0.474-0.663,0.995-0.663H580.711z"/>
	<path style="fill:#C12F41;" d="M607.119,40.962c0.521,0,0.996,0.047,0.996,0.663v2.655c0,0.332-0.332,0.521-0.996,0.521h-2.513
		c-1.896,0-4.599-1.375-5.025-3.508v3.697c0,7.159-2.086,11.094-7.49,11.094c-2.607,0-3.65-0.854-3.65-0.854v-3.84
		c0.948,0.521,1.991,0.806,3.081,0.806c2.608,0,4.03-1.659,4.03-7.206V24.605h4.029v11.142c0,3.46,2.229,5.215,5.073,5.215H607.119z
		"/>
	<path style="fill:#C12F41;" d="M607.12,44.802c-0.664,0-0.995-0.189-0.995-0.521v-2.655c0-0.616,0.474-0.663,0.995-0.663h8.107
		c0.711,0,1.043,0.189,1.043,0.521v2.654c0,0.616-0.475,0.664-1.043,0.664H607.12z"/>
	<path style="fill:#C12F41;" d="M619.731,40.962c1.659,0,2.655-1.233,2.655-4.741v-9.719h4.029v9.861c0,3.413,1.849,4.74,5.073,4.74
		c3.271,0,4.883-1.422,4.883-4.74V25.602h4.029v10.619c0,3.366,1.707,4.741,3.982,4.741h6.685V24.605h4.077v20.196h-10.714
		c-1.659,0-4.457-1.232-5.025-3.745h-0.143c-1.47,2.607-4.172,3.888-7.253,3.888c-2.466,0-5.452-0.996-6.163-3.65h-0.143
		c-0.854,2.417-2.655,3.508-5.357,3.508h-5.12c-0.664,0-0.995-0.189-0.995-0.521v-2.655c0-0.616,0.474-0.663,0.995-0.663H619.731z
		 M632.341,10.904h4.03v5.547h-4.03V10.904z M636.418,3.604h4.03V9.15h-4.03V3.604z M640.449,10.904h4.029v5.547h-4.029V10.904z"/>
	<g>
		<path style="fill:#C12F41;" d="M14.481,103.088l-3.425,9.545H6.855l11.326-31.783h5.16l11.828,31.783h-4.521l-3.516-9.545H14.481z
			 M26.081,99.481c-3.06-8.357-4.704-12.786-5.388-15.207h-0.046c-0.776,2.694-2.649,8.082-5.069,15.207H26.081z"/>
		<path style="fill:#C12F41;" d="M37.677,95.326c0-2.01,0-4.064-0.045-5.845h3.881c0.137,0.685,0.183,3.105,0.183,3.79
			c0.913-1.963,2.785-4.338,7.261-4.338c4.384,0,7.764,2.649,7.764,8.814v14.887h-4.019V98.248c0-3.517-1.37-5.845-4.886-5.845
			c-4.384,0-6.119,3.334-6.119,7.991v12.239h-4.019V95.326z"/>
		<path style="fill:#C12F41;" d="M99.873,96.558c0,8.768-4.887,16.532-14.888,16.532c-9.361,0-14.567-7.215-14.567-16.349
			c0-9.088,5.297-16.348,14.933-16.348C94.301,80.392,99.873,87.106,99.873,96.558z M74.847,96.604
			c0,6.85,3.471,12.877,10.321,12.877c7.353,0,10.322-6.074,10.322-12.832c0-6.85-3.334-12.65-10.322-12.65
			C77.998,84,74.847,89.845,74.847,96.604z"/>
		<path style="fill:#C12F41;" d="M108.821,98.659v13.974h-4.155V80.849h12.421c6.53,0,10.001,3.561,10.001,8.493
			c0,4.155-2.374,6.667-5.434,7.489c2.603,0.686,4.841,2.649,4.841,8.129v1.37c0,2.192-0.091,4.978,0.456,6.302h-4.109
			c-0.594-1.37-0.548-3.836-0.548-6.85v-0.639c0-4.521-1.279-6.485-6.987-6.485H108.821z M108.821,95.097h6.896
			c4.886,0,6.987-1.827,6.987-5.388c0-3.38-2.192-5.298-6.485-5.298h-7.398V95.097z"/>
		<path style="fill:#C12F41;" d="M136.583,80.849v31.783h-4.201V80.849H136.583z"/>
		<path style="fill:#C12F41;" d="M161.196,112.633l-8.449-13.061h-0.045l-8.494,13.061h-4.658l10.731-16.075l-10.321-15.709h4.886
			l7.992,12.375h0.045l8.22-12.375h4.659l-10.549,15.343l10.914,16.44H161.196z"/>
		<path style="fill:#C12F41;" d="M203.891,112.633h-3.242c-0.229-0.593-0.365-2.01-0.411-4.293c-1.37,2.238-4.11,4.704-9.863,4.704
			c-9.18,0-14.02-6.941-14.02-15.983c0-9.499,5.206-16.668,14.796-16.668c7.398,0,12.01,4.018,12.923,9.681h-4.202
			c-1.096-3.562-3.607-6.165-8.813-6.165c-7.353,0-10.275,5.891-10.275,12.97c0,6.53,2.923,12.65,10.093,12.65
			c7.123,0,8.904-4.75,8.904-10.093V99.07h-8.95v-3.607h13.061V112.633z"/>
		<path style="fill:#C12F41;" d="M208.775,95.782c0-3.241-0.045-5.069-0.045-6.301h3.927c0.046,0.639,0.137,2.466,0.137,4.704
			c1.187-3.105,3.927-5.161,7.763-5.252v3.973c-4.749,0.137-7.763,2.649-7.763,8.494v11.234h-4.019V95.782z"/>
		<path style="fill:#C12F41;" d="M242.567,100.988c0,6.712-3.836,12.193-10.914,12.193c-6.622,0-10.64-5.115-10.64-12.102
			c0-6.851,3.927-12.148,10.914-12.148C238.366,88.932,242.567,93.727,242.567,100.988z M225.123,101.034
			c0,5.115,2.557,8.814,6.712,8.814c4.202,0,6.622-3.517,6.622-8.768c0-5.206-2.374-8.814-6.713-8.814
			C227.406,92.266,225.123,95.782,225.123,101.034z"/>
		<path style="fill:#C12F41;" d="M264.53,105.875c0,2.283,0.046,5.388,0.046,6.758h-3.882c-0.091-0.593-0.137-2.01-0.182-3.471
			c-1.142,2.558-3.334,4.019-6.987,4.019c-3.928,0-7.672-1.963-7.672-8.494V89.48h3.973v14.385c0,3.014,0.959,5.845,4.795,5.845
			c4.247,0,5.891-2.374,5.891-8.175V89.48h4.018V105.875z"/>
		<path style="fill:#C12F41;" d="M269.552,121.721V95.143c0-1.918,0-3.882-0.045-5.663h3.881c0.092,0.776,0.137,2.146,0.137,3.653
			c1.279-2.374,3.608-4.202,7.581-4.202c5.342,0,9.224,4.475,9.224,11.508c0,8.311-4.429,12.741-10.047,12.741
			c-3.745,0-5.708-1.553-6.758-3.425v11.964H269.552z M280.055,92.357c-4.795,0-6.713,3.014-6.713,8.677
			c0,5.434,1.553,8.768,6.394,8.768c4.247,0,6.484-3.471,6.484-9.179C286.22,95.69,283.982,92.357,280.055,92.357z"/>
		<path style="fill:#C12F41;" d="M320.741,107.564c0,2.146,0.182,4.384,0.32,5.069h-3.836c-0.183-0.502-0.32-1.599-0.366-3.014
			c-0.822,1.506-2.694,3.562-7.169,3.562c-5.48,0-7.81-3.562-7.81-7.078c0-5.161,4.065-7.535,10.961-7.535h3.927v-1.963
			c0-2.056-0.639-4.521-4.977-4.521c-3.837,0-4.521,1.918-4.932,3.698h-3.882c0.32-3.196,2.283-6.85,8.95-6.85
			c5.663,0,8.814,2.329,8.814,7.58V107.564z M316.813,101.353h-3.745c-4.612,0-7.078,1.279-7.078,4.521
			c0,2.421,1.644,4.155,4.521,4.155c5.571,0,6.301-3.745,6.301-7.946V101.353z"/>
		<path style="fill:#C12F41;" d="M327.452,106.011c0.639,2.512,2.512,4.019,5.663,4.019c3.38,0,4.704-1.461,4.704-3.562
			c0-2.192-1.05-3.196-5.479-4.247c-6.622-1.599-7.992-3.653-7.992-6.805c0-3.242,2.421-6.485,8.357-6.485
			c5.983,0,8.448,3.471,8.723,6.667h-3.837c-0.365-1.461-1.506-3.562-5.023-3.562c-3.242,0-4.247,1.553-4.247,3.06
			c0,1.735,0.959,2.603,5.206,3.607c7.033,1.69,8.448,4.019,8.448,7.444c0,4.064-3.242,7.033-8.997,7.033
			c-5.982,0-8.95-3.014-9.544-7.17H327.452z"/>
		<path style="fill:#C12F41;" d="M347.543,106.011c0.639,2.512,2.512,4.019,5.663,4.019c3.38,0,4.704-1.461,4.704-3.562
			c0-2.192-1.05-3.196-5.48-4.247c-6.622-1.599-7.992-3.653-7.992-6.805c0-3.242,2.421-6.485,8.357-6.485
			c5.983,0,8.448,3.471,8.722,6.667h-3.836c-0.365-1.461-1.506-3.562-5.023-3.562c-3.242,0-4.247,1.553-4.247,3.06
			c0,1.735,0.959,2.603,5.206,3.607c7.033,1.69,8.448,4.019,8.448,7.444c0,4.064-3.242,7.033-8.996,7.033
			c-5.982,0-8.95-3.014-9.544-7.17H347.543z"/>
		<path style="fill:#C12F41;" d="M385.398,100.988c0,6.712-3.836,12.193-10.914,12.193c-6.622,0-10.64-5.115-10.64-12.102
			c0-6.851,3.927-12.148,10.914-12.148C381.197,88.932,385.398,93.727,385.398,100.988z M367.954,101.034
			c0,5.115,2.557,8.814,6.712,8.814c4.202,0,6.622-3.517,6.622-8.768c0-5.206-2.374-8.814-6.713-8.814
			C370.237,92.266,367.954,95.782,367.954,101.034z"/>
		<path style="fill:#C12F41;" d="M407.316,105.555c-0.959,3.973-3.653,7.626-9.544,7.626c-6.394,0-10.321-4.566-10.321-12.01
			c0-6.531,3.698-12.239,10.594-12.239c6.667,0,8.997,4.75,9.27,7.718h-3.973c-0.548-2.329-2.01-4.384-5.388-4.384
			c-4.064,0-6.394,3.516-6.394,8.768c0,5.297,2.238,8.814,6.256,8.814c2.878,0,4.566-1.553,5.526-4.293H407.316z"/>
		<path style="fill:#C12F41;" d="M410.694,84.091v-4.977h4.019v4.977H410.694z M410.694,89.48h4.019v23.153h-4.019V89.48z"/>
		<path style="fill:#C12F41;" d="M436.678,107.564c0,2.146,0.182,4.384,0.32,5.069h-3.837c-0.182-0.502-0.319-1.599-0.365-3.014
			c-0.822,1.506-2.694,3.562-7.169,3.562c-5.48,0-7.809-3.562-7.809-7.078c0-5.161,4.064-7.535,10.959-7.535h3.928v-1.963
			c0-2.056-0.639-4.521-4.977-4.521c-3.837,0-4.521,1.918-4.932,3.698h-3.882c0.32-3.196,2.283-6.85,8.95-6.85
			c5.663,0,8.814,2.329,8.814,7.58V107.564z M432.75,101.353h-3.745c-4.613,0-7.078,1.279-7.078,4.521
			c0,2.421,1.644,4.155,4.521,4.155c5.571,0,6.301-3.745,6.301-7.946V101.353z"/>
		<path style="fill:#C12F41;" d="M438.458,89.48h4.018V82.63h3.973v6.851h5.115v3.242h-5.115v13.563
			c0,2.283,0.548,3.425,2.649,3.425c0.547,0,1.37-0.046,2.009-0.182v3.014c-0.958,0.365-2.328,0.411-3.47,0.411
			c-3.608,0-5.161-1.872-5.161-5.708V92.723h-4.018V89.48z"/>
		<path style="fill:#C12F41;" d="M456.22,101.764c0.046,4.704,2.421,8.083,6.348,8.083c3.653,0,4.84-1.918,5.571-3.608h4.064
			c-0.913,2.969-3.425,6.942-9.772,6.942c-7.262,0-10.229-5.937-10.229-11.873c0-6.896,3.471-12.376,10.503-12.376
			c7.49,0,9.91,5.983,9.91,10.915c0,0.73,0,1.324-0.045,1.917H456.22z M468.55,98.979c-0.045-3.836-1.964-6.896-5.89-6.896
			c-4.11,0-5.891,2.831-6.302,6.896H468.55z"/>
		<path style="fill:#C12F41;" d="M503.893,105.555c-0.959,3.973-3.653,7.626-9.544,7.626c-6.394,0-10.321-4.566-10.321-12.01
			c0-6.531,3.698-12.239,10.594-12.239c6.667,0,8.997,4.75,9.27,7.718h-3.973c-0.548-2.329-2.01-4.384-5.388-4.384
			c-4.064,0-6.394,3.516-6.394,8.768c0,5.297,2.238,8.814,6.256,8.814c2.878,0,4.566-1.553,5.526-4.293H503.893z"/>
		<path style="fill:#C12F41;" d="M527.044,100.988c0,6.712-3.836,12.193-10.914,12.193c-6.622,0-10.64-5.115-10.64-12.102
			c0-6.851,3.927-12.148,10.914-12.148C522.844,88.932,527.044,93.727,527.044,100.988z M509.6,101.034
			c0,5.115,2.557,8.814,6.712,8.814c4.202,0,6.622-3.517,6.622-8.768c0-5.206-2.374-8.814-6.713-8.814
			C511.884,92.266,509.6,95.782,509.6,101.034z"/>
		<path style="fill:#C12F41;" d="M530.421,95.463c0-2.01,0-4.11-0.045-5.983h3.836c0.091,0.685,0.182,2.374,0.182,3.562
			c1.05-2.056,3.06-4.11,6.713-4.11c3.288,0,5.526,1.644,6.439,4.155c1.233-2.192,3.425-4.155,7.353-4.155
			c3.79,0,7.307,2.238,7.307,8.494v15.207h-3.928V97.882c0-2.648-0.958-5.479-4.566-5.479c-3.791,0-5.434,2.831-5.434,6.941v13.289
			h-3.927V98.02c0-2.969-0.822-5.617-4.475-5.617c-3.699,0-5.481,3.014-5.481,7.398v12.832h-3.973V95.463z"/>
		<path style="fill:#C12F41;" d="M567.226,121.721V95.143c0-1.918,0-3.882-0.045-5.663h3.881c0.092,0.776,0.137,2.146,0.137,3.653
			c1.279-2.374,3.608-4.202,7.581-4.202c5.342,0,9.224,4.475,9.224,11.508c0,8.311-4.429,12.741-10.047,12.741
			c-3.745,0-5.708-1.553-6.758-3.425v11.964H567.226z M577.73,92.357c-4.795,0-6.713,3.014-6.713,8.677
			c0,5.434,1.553,8.768,6.394,8.768c4.247,0,6.484-3.471,6.484-9.179C583.894,95.69,581.657,92.357,577.73,92.357z"/>
		<path style="fill:#C12F41;" d="M608.689,107.564c0,2.146,0.182,4.384,0.32,5.069h-3.837c-0.182-0.502-0.319-1.599-0.365-3.014
			c-0.822,1.506-2.694,3.562-7.169,3.562c-5.48,0-7.809-3.562-7.809-7.078c0-5.161,4.064-7.535,10.959-7.535h3.928v-1.963
			c0-2.056-0.639-4.521-4.977-4.521c-3.837,0-4.521,1.918-4.932,3.698h-3.882c0.32-3.196,2.283-6.85,8.95-6.85
			c5.663,0,8.814,2.329,8.814,7.58V107.564z M604.761,101.353h-3.745c-4.613,0-7.078,1.279-7.078,4.521
			c0,2.421,1.644,4.155,4.521,4.155c5.571,0,6.301-3.745,6.301-7.946V101.353z"/>
		<path style="fill:#C12F41;" d="M613.756,95.326c0-2.01,0-4.064-0.045-5.845h3.881c0.137,0.685,0.183,3.105,0.183,3.79
			c0.913-1.963,2.785-4.338,7.261-4.338c4.384,0,7.764,2.649,7.764,8.814v14.887h-4.019V98.248c0-3.517-1.37-5.845-4.886-5.845
			c-4.384,0-6.119,3.334-6.119,7.991v12.239h-4.019V95.326z"/>
		<path style="fill:#C12F41;" d="M638.916,89.48c3.745,11.096,5.8,17.216,6.439,19.591h0.046c0.731-2.649,2.374-7.946,6.165-19.591
			h4.018l-8.311,24.203c-2.329,6.805-4.11,8.494-8.814,8.494c-0.731,0-1.598-0.046-2.511-0.137v-3.471
			c0.593,0.046,1.278,0.091,1.917,0.091c2.923,0,4.019-1.278,5.389-5.115l-8.677-24.066H638.916z"/>
	</g>
</g>
</svg>
