<?xml version="1.0" encoding="iso-8859-1"?>
<!-- Generator: Adobe Illustrator 25.1.0, SVG Export Plug-In . SVG Version: 6.00 Build 0)  -->
<svg version="1.1" id="Layer_1" xmlns="http://www.w3.org/2000/svg" xmlns:xlink="http://www.w3.org/1999/xlink" x="0px" y="0px"
	 viewBox="0 0 524.793 175.943" style="enable-background:new 0 0 524.793 175.943;" xml:space="preserve">
<g>
	<path style="fill:#003C71;" d="M335.935,77.864h-10.122V0h10.122l37.375,59.433V0h10.122v77.864H373.31l-37.375-59.433V77.864z"/>
	<polygon style="fill:#003C71;" points="437.848,0 423.57,0 394.113,77.864 405.145,77.864 415.264,50.999 430.709,9.991 
		446.153,50.999 456.272,77.864 467.305,77.864 	"/>
	<polygon style="fill:#003C71;" points="289.411,0 275.133,0 245.676,77.864 256.708,77.864 266.828,50.999 282.272,9.991 
		297.717,50.999 307.836,77.864 318.868,77.864 	"/>
	<path style="fill:#003C71;" d="M524.793,67.61v10.254h-46.978V0h10.51v67.61H524.793z"/>
	<path style="fill:#003C71;" d="M193.809,149.902v10.254h37.328V82.292h-10.51v67.61H193.809z"/>
	<path style="fill:#003C71;" d="M314.325,149.902l6.554,10.254h62.61V128.2h-10.51v21.703H314.325z"/>
	<polygon style="fill:#003C71;" points="303.815,128.2 303.815,149.902 296.96,149.902 278.938,149.902 256.186,149.902 
		256.186,82.292 245.676,82.292 245.676,160.156 265.015,160.156 296.96,160.156 314.325,160.156 314.325,128.2 	"/>
	<rect x="273.149" y="112.408" style="fill:#003C71;" width="10.51" height="10.51"/>
	<rect x="372.978" y="165.433" style="fill:#003C71;" width="10.51" height="10.51"/>
	<rect x="357.344" y="165.433" style="fill:#003C71;" width="10.51" height="10.51"/>
	<g>
		<g>
			<path style="fill:#C12F41;" d="M126.616,22.126c-5.802-4.081-12.171-7.373-18.955-9.82L98.27,55.38l26.849-20.535L126.616,22.126
				z"/>
			<path style="fill:#C12F41;" d="M160.631,81.843L160.631,81.843c-0.427-5.644-1.415-11.125-2.951-16.386l-59.527-9.988
				L71.304,76.004l74.984,4.902c0.246,2.314,0.378,4.661,0.378,7.039c0,36.501-29.697,66.197-66.198,66.197
				c-25.954,0-48.453-15.021-59.296-36.82l87.342,5.709l16.864-12.898l-80.94-13.581L20.14,115.135
				c-3.757-8.302-5.866-17.502-5.866-27.191c0-29.412,19.286-54.391,45.871-62.99L44.554,96.464l26.849-20.535l8.054-68.401
				C74.039,7.596,68.75,8.19,63.639,9.283l0.005-0.023C27.326,17.018,0,49.345,0,87.945c0,44.372,36.099,80.471,80.468,80.471
				c44.372,0,80.472-36.099,80.472-80.471L160.631,81.843z"/>
		</g>
		<g>
			<path style="fill:#C52F40;" d="M126.616,22.126c-5.802-4.081-12.171-7.373-18.955-9.82L98.27,55.38l26.849-20.535L126.616,22.126
				z"/>
			<path style="fill:#C52F40;" d="M160.631,81.843L160.631,81.843c-0.427-5.644-1.415-11.125-2.951-16.386l-59.527-9.988
				L71.304,76.004l74.984,4.902c0.246,2.314,0.378,4.661,0.378,7.039c0,36.501-29.697,66.197-66.198,66.197
				c-25.954,0-48.453-15.021-59.296-36.82l87.342,5.709l16.864-12.898l-80.94-13.581L20.14,115.135
				c-3.757-8.302-5.866-17.502-5.866-27.191c0-29.412,19.286-54.391,45.871-62.99L44.554,96.464l26.849-20.535l8.054-68.401
				C74.039,7.596,68.75,8.19,63.639,9.283l0.005-0.023C27.326,17.018,0,49.345,0,87.945c0,44.372,36.099,80.471,80.468,80.471
				c44.372,0,80.472-36.099,80.472-80.471L160.631,81.843z"/>
		</g>
	</g>
	<polygon style="fill:#003C71;" points="220.559,77.864 232.503,77.864 261.423,0 249.612,0 233.479,43.348 205.617,0 193.809,0 
		229.181,54.633 	"/>
</g>
</svg>
