<?xml version="1.0" encoding="utf-8"?>
<!-- Generator: Adobe Illustrator 25.2.0, SVG Export Plug-In . SVG Version: 6.00 Build 0)  -->
<svg version="1.1" id="Layer_1" xmlns="http://www.w3.org/2000/svg" xmlns:xlink="http://www.w3.org/1999/xlink" x="0px" y="0px"
	 viewBox="0 0 662 121.7" style="enable-background:new 0 0 662 121.7;" xml:space="preserve">
<style type="text/css">
	.st0{fill:#C12F41;}
	.st1{fill:#003C71;}
	.st2{fill:#C52F40;}
	.st3{fill:#878787;}
	.st4{fill:#FFFFFF;}
</style>
<g>
	<path class="st2" d="M6.9,27.5l-0.3-1.2l6.4-1.7l0.3,1.2L6.9,27.5z M7.5,29.9l-0.3-1.2l6.4-1.7l0.3,1.2L7.5,29.9z"/>
	<path class="st2" d="M14,54.8c0.3,0,0.7,0,0.7,0.4V57c0,0.2-0.2,0.3-0.7,0.3H8.5V34.7h2.7v20.1H14z"/>
	<path class="st2" d="M14,57.4c-0.4,0-0.7-0.1-0.7-0.3v-1.8c0-0.4,0.3-0.4,0.7-0.4h4.2v-0.1c-0.7-0.6-2.1-3.2-2.1-5.1
		c0-5,2.9-7.8,7.5-7.8s7.4,2.6,7.4,7.8c0,1.9-1.4,4.2-2.1,5.1v0.1h4.5c0.3,0,0.7,0,0.7,0.4V57c0,0.2-0.2,0.3-0.7,0.3H14z M19.1,49.6
		c0,3.4,1.7,5.3,4.6,5.3s4.6-2,4.6-5.3c0-3.4-1.7-5.1-4.6-5.1S19.1,46.2,19.1,49.6z M19.6,34.7h2.7v3.7h-2.7V34.7z M25.1,34.7h2.7
		v3.7h-2.7V34.7z"/>
	<path class="st2" d="M39.9,54.8v-11h2.7v13.5h-9c-0.4,0-0.7-0.1-0.7-0.3v-1.8c0-0.4,0.3-0.4,0.7-0.4H39.9z M39.9,60.4h2.7v3.7h-2.7
		V60.4z"/>
	<path class="st2" d="M52.3,54.8c0.3,0,0.7,0,0.7,0.4V57c0,0.2-0.2,0.3-0.7,0.3h-5.6V34.7h2.7v20.1H52.3z"/>
	<path class="st2" d="M55.3,54.8c1.1,0,1.8-0.8,1.8-3.2v-6.5h2.7v6.6c0,2.3,1.2,3.2,3.4,3.2c2.2,0,3.3-1,3.3-3.2v-7.2h2.7v7.1
		c0,2.3,1.1,3.2,2.7,3.2h4.5v-11H79v13.5h-7.2c-1.1,0-3-0.8-3.4-2.5h-0.1c-1,1.7-2.8,2.6-4.9,2.6c-1.7,0-3.7-0.7-4.1-2.4h-0.1
		c-0.6,1.6-1.8,2.3-3.6,2.3h-3.4c-0.4,0-0.7-0.1-0.7-0.3v-1.8c0-0.4,0.3-0.4,0.7-0.4H55.3z"/>
	<path class="st2" d="M89.4,53.9h2.5c0.1,6.5,2.8,9.7,9,9.7c4.1,0,7.6-1.3,7.6-4.1c0-1.3-0.9-2.1-1.9-2.1c-0.8,0-2.2-0.3-3.4-1.1
		v-2.4c1,0.6,3.4,1,4.7,1h4.3c0.3,0,0.7,0,0.7,0.4V57c0,0.2-0.2,0.3-0.7,0.3h-2.5c0.5,0.6,0.9,1.8,0.9,2.7c0,3.3-3.5,6.2-9.7,6.2
		C92.7,66.2,89.4,61.3,89.4,53.9z M97.1,70.6h2.7v3.7h-2.7V70.6z M102.5,70.6h2.7v3.7h-2.7V70.6z"/>
	<path class="st2" d="M123.7,57.4c-1.8,0-3.9-1.3-4.5-2.8c-1,1.9-2.8,2.8-4.6,2.8h-2.4c-0.4,0-0.7-0.1-0.7-0.3v-1.8
		c0-0.4,0.3-0.4,0.7-0.4h2.4c1.4,0,2.7-0.9,2.7-3.2v-17h2.7v15.8c0,2.5,1.7,4.3,3.8,4.3h1.3c0.3,0,0.7,0,0.7,0.4V57
		c0,0.2-0.2,0.3-0.7,0.3H123.7z"/>
	<path class="st2" d="M131.3,54.8v-11h2.7v13.5h-9c-0.4,0-0.7-0.1-0.7-0.3v-1.8c0-0.4,0.3-0.4,0.7-0.4H131.3z M125.5,60.4h2.7v3.7
		h-2.7V60.4z M130.9,60.4h2.7v3.7h-2.7V60.4z"/>
	<path class="st2" d="M139.5,64.5v-2.6c0.6,0.3,1.7,0.5,2.4,0.5c3.6,0,5.5-0.8,6.3-5h-3.7c-4.4,0-7-3.2-7-7.4c0-4.2,1.8-8.2,7-8.2
		c5.2,0,7,3.5,7,9.5c0,1.3-0.1,2.4-0.1,3.5h4.5c0.3,0,0.7,0,0.7,0.4V57c0,0.2-0.2,0.3-0.7,0.3H151c-1,5.6-3.7,7.6-8.6,7.6
		C140.7,64.9,139.5,64.5,139.5,64.5z M144.5,54.8h4.1c0.1-1.1,0.1-2.3,0.1-3.7c0-4.5-1.3-6.7-4.2-6.7s-4.2,2.3-4.2,5.5
		S141.7,54.8,144.5,54.8z"/>
	<path class="st2" d="M161.2,54.8c-0.8,1.7-2.7,2.6-4.3,2.6h-1.1c-0.4,0-0.7-0.1-0.7-0.3v-1.8c0-0.4,0.3-0.4,0.7-0.4h1
		c1.9,0,3.4-0.8,3.5-4v-0.3c0-5,2.9-7.8,7.4-7.8c4.6,0,7.4,2.9,7.4,7.8v0.3c0.1,3.2,1.5,4,3.5,4h1c0.3,0,0.7,0,0.7,0.4V57
		c0,0.2-0.2,0.3-0.7,0.3h-1.1c-1.7,0-3.6-0.9-4.3-2.6c-1.2,2.3-3.4,3.5-6.5,3.5C164.6,58.3,162.4,57.1,161.2,54.8z M172.4,50.5
		c0-3.5-1.9-5.2-4.6-5.2c-2.7,0-4.6,1.7-4.6,5.2s1.9,5.1,4.6,5.1C170.5,55.7,172.4,54,172.4,50.5z"/>
	<path class="st2" d="M193.5,57.4c-1.8,0-3.9-1.3-4.5-2.8c-1,1.9-2.8,2.8-4.6,2.8h-4.6c-0.4,0-0.7-0.1-0.7-0.3v-1.8
		c0-0.4,0.3-0.4,0.7-0.4h4.6c1.4,0,2.7-0.9,2.7-3.2v-7.8h2.7v6.7c0,2.5,1.7,4.3,3.8,4.3h1.4c0.3,0,0.7,0,0.7,0.4V57
		c0,0.2-0.2,0.3-0.7,0.3H193.5z M184.1,34.7h2.7v3.7h-2.7V34.7z M189.6,34.7h2.7v3.7h-2.7V34.7z"/>
	<path class="st2" d="M200.1,54.8V34.7h2.7v22.7h-8c-0.4,0-0.7-0.1-0.7-0.3v-1.8c0-0.4,0.3-0.4,0.7-0.4H200.1z"/>
	<path class="st2" d="M206.9,57.4V34.7h2.7v22.7H206.9z"/>
	<path class="st2" d="M232,54.8c0.3,0,0.7,0,0.7,0.4V57c0,0.2-0.2,0.3-0.7,0.3h-1.7c-1.3,0-3.1-0.9-3.4-2.3v2.5c0,4.8-1.4,7.4-5,7.4
		c-1.7,0-2.4-0.6-2.4-0.6v-2.6c0.6,0.3,1.3,0.5,2.1,0.5c1.7,0,2.7-1.1,2.7-4.8V43.8h2.7v7.5c0,2.3,1.5,3.5,3.4,3.5H232z"/>
	<path class="st2" d="M245.7,57.4c-1.8,0-3.9-1.3-4.5-2.8c-1,1.9-2.8,2.8-4.6,2.8H232c-0.4,0-0.7-0.1-0.7-0.3v-1.8
		c0-0.4,0.3-0.4,0.7-0.4h4.6c1.4,0,2.7-0.9,2.7-3.2v-7.8h2.7v6.7c0,2.5,1.7,4.3,3.8,4.3h1.4c0.3,0,0.7,0,0.7,0.4V57
		c0,0.2-0.2,0.3-0.7,0.3H245.7z M236.7,60.4h2.7v3.7h-2.7V60.4z M242.1,60.4h2.7v3.7h-2.7V60.4z"/>
	<path class="st2" d="M265.4,54.8c-0.2-0.5-0.7-2.9-0.9-4.5c-0.6-4-3-6-6.1-6c-2.7,0-5.6,2.1-6,4.4h-2.6c0.3-3.8,3.8-7,8.6-7
		c5.2,0,8.2,3.8,8.8,8.8c0.6,4.7,0.9,5.2,1.3,6.8h-21.4c-0.4,0-0.7-0.1-0.7-0.3v-1.8c0-0.4,0.3-0.4,0.7-0.4H265.4z M256.3,60.4h2.7
		v3.7h-2.7V60.4z"/>
	<path class="st2" d="M270.9,31.3h1.2v-0.1c-0.3-0.3-0.6-1-0.6-1.6c0-1.3,0.8-2.3,2.4-2.3c1.2,0,2.3,0.7,2.3,2.3h-1.1
		c0-0.6-0.5-1.2-1.2-1.2c-0.6,0-1.2,0.5-1.2,1.4c0,1,0.6,1.5,1.4,1.5h2.3v1.1h-5.5V31.3z M277.8,54.8c0.3,0,0.7,0,0.7,0.4V57
		c0,0.2-0.2,0.3-0.7,0.3h-5.6V34.7h2.7v20.1H277.8z"/>
	<path class="st2" d="M291.5,57.4c-1.8,0-3.9-1.3-4.5-2.8c-1,1.9-2.8,2.8-4.6,2.8h-4.6c-0.4,0-0.7-0.1-0.7-0.3v-1.8
		c0-0.4,0.3-0.4,0.7-0.4h4.6c1.4,0,2.7-0.9,2.7-3.2v-7.8h2.7v6.7c0,2.5,1.7,4.3,3.8,4.3h1.4c0.3,0,0.7,0,0.7,0.4V57
		c0,0.2-0.2,0.3-0.7,0.3H291.5z M282.2,34.7h2.7v3.7h-2.7V34.7z M287.6,34.7h2.7v3.7h-2.7V34.7z"/>
	<path class="st2" d="M304.4,57.4c-1.8,0-3.9-1.3-4.5-2.8c-1,1.9-2.8,2.8-4.6,2.8h-2.4c-0.4,0-0.7-0.1-0.7-0.3v-1.8
		c0-0.4,0.3-0.4,0.7-0.4h2.4c1.4,0,2.7-0.9,2.7-3.2v-17h2.7v15.8c0,2.5,1.7,4.3,3.8,4.3h1.3c0.3,0,0.7,0,0.7,0.4V57
		c0,0.2-0.2,0.3-0.7,0.3H304.4z"/>
	<path class="st2" d="M311,54.8V34.7h2.7v22.7h-8c-0.4,0-0.7-0.1-0.7-0.3v-1.8c0-0.4,0.3-0.4,0.7-0.4H311z"/>
	<path class="st2" d="M340.8,57.4c-2.7,0-4.4-1.7-5.1-3.7c-1,1.4-2.6,2.6-4.7,2.6c-3.2,0-6.6-1.9-6.6-6.7c0-4.1,1.9-7.2,6.7-7.2h6.7
		v8.5c0,3.1,1.4,4,3,4h0.9c0.3,0,0.7,0,0.7,0.4V57c0,0.2-0.2,0.3-0.7,0.3H340.8z M335.1,49.7v-4.8h-4c-2.3,0-4,1.8-4,4.7
		s2,4.1,3.9,4.1C333,53.7,335.1,52.5,335.1,49.7z M327.7,34.7h2.7v3.7h-2.7V34.7z M333.1,34.7h2.7v3.7h-2.7V34.7z"/>
	<path class="st2" d="M348,54.8v-11h2.7v13.5h-9c-0.4,0-0.7-0.1-0.7-0.3v-1.8c0-0.4,0.3-0.4,0.7-0.4H348z M342.2,60.4h2.7v3.7h-2.7
		V60.4z M347.7,60.4h2.7v3.7h-2.7V60.4z"/>
	<path class="st2" d="M354.4,57.4v-2.6h9.2v-4c0-3.1-1.4-5.9-4.9-5.9h-2.9v-2.5h2.4c4.6,0,8,2.5,8,8.5v6.5H354.4z"/>
	<path class="st2" d="M371.4,64.5v-2.6c0.6,0.3,1.7,0.5,2.4,0.5c3.6,0,5.5-0.8,6.3-5h-3.7c-4.4,0-7-3.2-7-7.4c0-4.2,1.8-8.2,7-8.2
		c5.2,0,7,3.5,7,9.5c0,1.3-0.1,2.4-0.1,3.5h4.5c0.3,0,0.7,0,0.7,0.4V57c0,0.2-0.2,0.3-0.7,0.3H383c-1,5.6-3.7,7.6-8.6,7.6
		C372.6,64.9,371.4,64.5,371.4,64.5z M376.4,54.8h4.1c0.1-1.1,0.1-2.3,0.1-3.7c0-4.5-1.3-6.7-4.2-6.7s-4.2,2.3-4.2,5.5
		S373.7,54.8,376.4,54.8z"/>
	<path class="st2" d="M396.2,54.8v-0.1c-2.1-2.1-3.3-9.1-5.6-11.3v-0.6h12.1c3.6,0,5.4,2.5,5.4,5.7c0,1.7-1.3,4.4-3,6.2v0.2
		c1,0,6.1,0,6.2,0c0.3,0,0.7,0,0.7,0.4V57c0,0.2-0.2,0.3-0.7,0.3h-23.4c-0.4,0-0.7-0.1-0.7-0.3v-1.8c0-0.4,0.3-0.4,0.7-0.4H396.2z
		 M400.2,55c2.5,0,5-3.9,5-6.6c0-1.8-0.7-3-3-3h-7.6C396,46.7,397.6,55,400.2,55z"/>
	<path class="st2" d="M414.2,54.8c1.1,0,1.8-0.8,1.8-3.2v-6.5h2.7v6.6c0,2.2,1.2,3.2,3.4,3.2c2.2,0,3.3-1,3.3-3.2v-7.2h2.7v7.1
		c0,2.3,1.4,3.3,3.8,3.3c2.2,0,3.3-1,3.3-3.2v-7.9h2.7v7.8c0,1.9,1.3,3.1,2.8,3.1h2c0.3,0,0.7,0,0.7,0.4V57c0,0.2-0.2,0.3-0.7,0.3
		h-2c-1.2,0-3-1-3.3-2.6h-0.1c-1,1.8-2.8,2.7-4.9,2.7c-1.6,0-4.1-0.6-4.9-2.4h-0.1c-1,1.6-2.8,2.4-4.7,2.4c-1.7,0-3.7-0.7-4.1-2.4
		h-0.1c-0.6,1.6-1.8,2.3-3.6,2.3h-3.4c-0.4,0-0.7-0.1-0.7-0.3v-1.8c0-0.4,0.3-0.4,0.7-0.4H414.2z"/>
	<path class="st2" d="M447.8,54.8V34.7h2.7v22.7h-8c-0.4,0-0.7-0.1-0.7-0.3v-1.8c0-0.4,0.3-0.4,0.7-0.4H447.8z"/>
	<path class="st2" d="M454.6,57.4V34.7h2.7v22.7H454.6z"/>
	<path class="st2" d="M467.6,51.2v-2.1h2.6v2.1c0,7.4,2.5,11.1,8.3,11.1c5.7,0,9.2-2.9,9.2-11.1v-6.1h2.7v6.5c0,2.2,1.2,3.2,3.4,3.2
		s3.3-1,3.3-3.2v-7.2h2.7v7.1c0,2.2,1.4,3.2,3.8,3.2c2.2,0,3.3-1,3.3-3.2v-7.9h2.7v7.8c0,1.9,1.2,3.1,2.8,3.1h2c0.3,0,0.7,0,0.7,0.4
		V57c0,0.2-0.2,0.3-0.7,0.3h-2c-1.2,0-3-1-3.3-2.6h-0.1c-1,1.8-2.8,2.7-4.9,2.7c-1.6,0-4.1-0.6-4.9-2.4h-0.1c-1,1.6-2.8,2.4-4.7,2.4
		c-1.6,0-3.4-0.6-4-2.1c-0.9,5.4-4,9.6-11.5,9.6C471.6,64.9,467.6,60.2,467.6,51.2z"/>
	<path class="st2" d="M530.3,54.8v-4.4c0-4-2.2-5.5-4.6-5.5h-9.7v-2.6l7.6-7.7h3.6l-7.5,7.7h5.8c5.5,0,7.6,3.5,7.6,8v7h-18.9
		c-0.4,0-0.7-0.1-0.7-0.3v-1.8c0-0.4,0.3-0.4,0.7-0.4H530.3z"/>
	<path class="st2" d="M540.2,57.5V43.8h2.7v13.7c0,4.8-1.4,7.4-5,7.4c-1.7,0-2.4-0.6-2.4-0.6v-2.6c0.6,0.3,1.3,0.5,2.1,0.5
		C539.3,62.3,540.2,61.2,540.2,57.5z"/>
	<path class="st2" d="M557.1,57.4h-3.7c-4.4,0-7-3.2-7-7.4c0-4.2,1.8-8.2,7-8.2c5.2,0,7,3.5,7,9.5c0,10.3-2.6,13.7-9,13.7
		c-1.7,0-2.6-0.5-2.6-0.5v-2.6c0.6,0.3,1.4,0.5,2.1,0.5C554.3,62.4,556.3,61.4,557.1,57.4z M557.5,54.8c0.1-1.1,0.1-2.3,0.1-3.7
		c0-4.5-1.4-6.7-4.2-6.7c-2.9,0-4.2,2.3-4.2,5.5s1.4,4.9,4.2,4.9H557.5z"/>
	<path class="st2" d="M562.6,31.3h1.2v-0.1c-0.3-0.3-0.6-1-0.6-1.6c0-1.3,0.8-2.3,2.4-2.3c1.2,0,2.3,0.7,2.3,2.3h-1.1
		c0-0.6-0.5-1.2-1.2-1.2c-0.6,0-1.2,0.5-1.2,1.4c0,1,0.6,1.5,1.4,1.5h2.3v1.1h-5.5V31.3z M563.9,57.4V34.7h2.7v22.7H563.9z"/>
	<path class="st2" d="M593.7,57.4c-2.7,0-4.4-1.7-5.1-3.7c-1,1.4-2.6,2.6-4.7,2.6c-3.2,0-6.6-1.9-6.6-6.7c0-4.1,1.9-7.2,6.7-7.2h6.7
		v8.5c0,3.1,1.4,4,3,4h0.9c0.3,0,0.7,0,0.7,0.4V57c0,0.2-0.2,0.3-0.7,0.3H593.7z M588,49.7v-4.8h-4c-2.3,0-4,1.8-4,4.7
		s2,4.1,3.9,4.1C585.9,53.7,588,52.5,588,49.7z M580.6,34.7h2.7v3.7h-2.7V34.7z M586.1,34.7h2.7v3.7h-2.7V34.7z"/>
	<path class="st2" d="M610.7,54.8v-4.4c0-4-2.2-5.5-4.6-5.5h-9.7v-2.6l7.6-7.7h3.6l-7.5,7.7h5.8c5.5,0,7.6,3.5,7.6,8v7h-18.9
		c-0.4,0-0.7-0.1-0.7-0.3v-1.8c0-0.4,0.3-0.4,0.7-0.4H610.7z"/>
	<path class="st2" d="M628.4,54.8c0.3,0,0.7,0,0.7,0.4V57c0,0.2-0.2,0.3-0.7,0.3h-1.7c-1.3,0-3.1-0.9-3.4-2.3v2.5
		c0,4.8-1.4,7.4-5,7.4c-1.7,0-2.4-0.6-2.4-0.6v-2.6c0.6,0.3,1.3,0.5,2.1,0.5c1.7,0,2.7-1.1,2.7-4.8V43.8h2.7v7.5
		c0,2.3,1.5,3.5,3.4,3.5H628.4z"/>
	<path class="st2" d="M631.4,54.8c1.1,0,1.8-0.8,1.8-3.2v-6.5h2.7v6.6c0,2.3,1.2,3.2,3.4,3.2c2.2,0,3.3-1,3.3-3.2v-7.2h2.7v7.1
		c0,2.3,1.1,3.2,2.7,3.2h4.5v-11h2.7v13.5h-7.2c-1.1,0-3-0.8-3.4-2.5h-0.1c-1,1.7-2.8,2.6-4.9,2.6c-1.7,0-3.7-0.7-4.1-2.4h-0.1
		c-0.6,1.6-1.8,2.3-3.6,2.3h-3.4c-0.4,0-0.7-0.1-0.7-0.3v-1.8c0-0.4,0.3-0.4,0.7-0.4H631.4z M639.8,34.7h2.7v3.7h-2.7V34.7z
		 M642.5,29.8h2.7v3.7h-2.7V29.8z M645.2,34.7h2.7v3.7h-2.7V34.7z"/>
	<path class="st2" d="M20.9,87.7v2.2h-9V98h8v2.2h-8v9.1H9.2V87.7H20.9z"/>
	<path class="st2" d="M34.2,109.6c-4.5,0-7.2-2.9-7.2-8.1c0-5.2,2.6-8.2,7.2-8.2c4.5,0,7.2,2.9,7.2,8.1
		C41.4,106.6,38.8,109.6,34.2,109.6z M38.5,101.5c0-4-1.4-6.1-4.3-6.1c-2.9,0-4.3,2.2-4.3,6.1c0,4,1.4,6.1,4.3,6.1
		C37.1,107.5,38.5,105.3,38.5,101.5z"/>
	<path class="st2" d="M56.8,96.1c0,0-0.7-0.1-1.5-0.1c-3.5,0-3.6,2.7-3.6,4.1v9.1h-2.7V93.7H51l0.5,3c0.6-2.5,2.5-3.1,4.8-3.1h0.5
		V96.1z"/>
	<path class="st2" d="M65.5,93.7l0.6,2.7c0.4-1.7,1.6-3,4.4-3c2.8,0,4.1,1.3,4.7,3.2c0.7-2.1,2.1-3.2,4.6-3.2c2.4,0,3.6,1,4.3,2
		c0.8,1.2,0.9,2.7,0.9,4.7v9.2h-2.7V100c0-1.4-0.1-2.3-0.6-3.1c-0.5-0.8-1.3-1.3-2.7-1.3c-3,0-3.4,2.6-3.4,4v9.6h-2.7V100
		c0-1.4-0.1-2.3-0.6-3.1c-0.5-0.8-1.3-1.3-2.7-1.3c-3,0-3.4,2.6-3.4,4v9.6h-2.7V93.7H65.5z"/>
	<path class="st2" d="M104.4,108.8c0,0-1.9,0.7-4.5,0.7c-2.8,0-4.5-0.8-5.6-1.9c-1.3-1.3-2-3.4-2-6c0-5.1,2.5-8.2,6.8-8.2
		c2.4,0,4.1,0.9,5.2,2.7s1,4.1,1,6.1H95.2c0,3.4,1.6,5.3,4.9,5.3c2.1,0,4.1-0.8,4.1-0.8h0.2V108.8z M102.5,100.1
		c0-3.1-1-4.8-3.4-4.8c-2.5,0-3.6,1.9-3.9,4.8H102.5z"/>
	<path class="st2" d="M120.7,96.1c0,0-0.7-0.1-1.5-0.1c-3.5,0-3.6,2.7-3.6,4.1v9.1h-2.7V93.7h2.1l0.5,3c0.6-2.5,2.5-3.1,4.8-3.1h0.5
		V96.1z"/>
	<path class="st2" d="M130.1,86.9v22.3h-2.7V86.9H130.1z"/>
	<path class="st2" d="M145.9,109c-1.4,3.7-2.5,6.1-6.2,6.1c-1.1,0-2-0.2-2-0.2v-2.2h0.2c0,0,1,0.4,1.9,0.4c1.8,0,2.6-1.5,3.6-4.2
		l-6.2-15h3.1l4.5,11.8l4.3-11.8h2.6L145.9,109z"/>
	<path class="st2" d="M181.6,90.5h-0.2c0,0-2.3-0.9-4.7-0.9c-2.7,0-4.1,1.3-4.1,3.1c0,4.9,9.9,3.7,9.9,10.8c0,4.2-3.4,6-7.6,6
		c-3.1,0-5.2-1-5.2-1v-2.3h0.2c0,0,2.6,1.3,5.2,1.3c2.8,0,4.5-1.5,4.5-3.6c0-5.3-9.9-4-9.9-10.8c0-3.4,2.5-5.5,6.9-5.5
		c2.7,0,4.9,0.8,4.9,0.8V90.5z"/>
	<path class="st2" d="M190.3,94.1c0,0,1.8-0.7,4.6-0.7c2.2,0,4.1,0.4,5.2,1.9c0.8,1.2,0.8,2.8,0.8,4.1v5.8c0,0.9,0,2.1,1.5,2.1
		c0.4,0,0.9-0.1,0.9-0.1v2c0,0-0.7,0.2-1.8,0.2c-1.8,0-2.9-0.7-3.1-2.8c-0.5,1.7-2.3,2.9-4.6,2.9c-3,0-4.9-1.8-4.9-4.5
		c0-3.1,2.5-4.8,7.7-4.8c0.9,0,1.6,0.1,1.6,0.1c0-1.7,0-2.6-0.5-3.4c-0.5-0.8-1.5-1.2-3.1-1.2c-2.2,0-4,0.8-4,0.8h-0.2V94.1z
		 M194.4,107.3c1.3,0,2.5-0.6,3.1-1.8c0.6-1.1,0.6-2.5,0.6-3.3V102h-0.9c-2,0-5.5,0-5.5,2.8C191.7,106.3,192.7,107.3,194.4,107.3z"
		/>
	<path class="st2" d="M220.1,109.2l-0.6-2.7c-0.4,1.8-1.8,3-4.5,3c-2.2,0-3.5-0.8-4.3-1.9c-0.9-1.2-0.9-2.8-0.9-4.8v-9.2h2.7v9.2
		c0,1.4,0,2.3,0.6,3.1c0.5,0.7,1.3,1.3,2.8,1.3c3.1,0,3.4-2.5,3.4-4v-9.6h2.7v15.5H220.1z"/>
	<path class="st2" d="M243.7,86.9v22.3h-2.1l-0.6-2.7c-0.5,1.9-2.3,3.1-4.8,3.1c-4.1,0-6.5-3.1-6.5-8.1c0-5,2.4-8.2,6.7-8.2
		c2.4,0,3.9,1,4.5,2.8v-9.3H243.7z M232.6,101.4c0,3.5,1.2,6,4.2,6c3,0,4.2-2.5,4.2-6c0-3.5-1.2-6-4.2-6
		C233.8,95.4,232.6,98,232.6,101.4z"/>
	<path class="st2" d="M255.3,89.1c0,0.9-0.7,1.7-1.7,1.7c-1.1,0-1.7-0.8-1.7-1.7s0.7-1.7,1.7-1.7C254.6,87.3,255.3,88.1,255.3,89.1z
		 M254.9,93.7v15.5h-2.7V93.7H254.9z"/>
	<path class="st2" d="M283.6,109.6c-6.2,0-9.6-4.1-9.6-11c0-7,3.5-11.2,9.7-11.2c6.2,0,9.6,4.1,9.6,11
		C293.3,105.4,289.9,109.6,283.6,109.6z M290.4,98.5c0-6-2.4-9-6.7-9c-4.3,0-6.7,3-6.7,9c0,6,2.4,9,6.7,9
		C288,107.5,290.4,104.5,290.4,98.5z"/>
	<path class="st2" d="M303.9,100.1v9.1h-2.8V87.7h6.5c1.5,0,3.5,0,5.2,1.1c1.5,1,2.3,2.6,2.3,5c0,3.5-1.9,5.3-4.4,6l5.6,9.4h-3.2
		l-5.2-9.1H303.9z M303.9,98h3.7c0.7,0,2.2,0,3.2-0.7c0.8-0.6,1.5-1.7,1.5-3.4c0-1.4-0.4-2.6-1.5-3.3c-1.1-0.7-2.5-0.7-3.2-0.7h-3.7
		V98z"/>
	<path class="st2" d="M326.2,87.7v21.5h-2.8V87.7H326.2z"/>
	<path class="st2" d="M336.9,87.7l5.7,8.7l5.7-8.7h2.8l-7,10.4l7.5,11.1h-3.3l-6.1-9.4l-6.1,9.4h-2.8l7.4-11.1l-7-10.4H336.9z"/>
	<path class="st2" d="M372.8,87.7V107h9v2.2H370V87.7H372.8z"/>
	<path class="st2" d="M399.3,108.8c0,0-1.9,0.7-4.5,0.7c-2.8,0-4.5-0.8-5.6-1.9c-1.3-1.3-2-3.4-2-6c0-5.1,2.5-8.2,6.8-8.2
		c2.4,0,4.1,0.9,5.1,2.7c1,1.7,1,4.1,1,6.1H390c0,3.4,1.6,5.3,4.9,5.3c2.1,0,4.2-0.8,4.2-0.8h0.2V108.8z M397.3,100.1
		c0-3.1-1-4.8-3.4-4.8c-2.5,0-3.6,1.9-3.9,4.8H397.3z"/>
	<path class="st2" d="M407.9,94.1c0,0,1.8-0.7,4.6-0.7c2.2,0,4.1,0.4,5.1,1.9c0.8,1.2,0.8,2.8,0.8,4.1v5.8c0,0.9,0,2.1,1.5,2.1
		c0.4,0,0.9-0.1,0.9-0.1v2c0,0-0.7,0.2-1.8,0.2c-1.8,0-2.9-0.7-3.1-2.8c-0.5,1.7-2.3,2.9-4.6,2.9c-3,0-4.9-1.8-4.9-4.5
		c0-3.1,2.5-4.8,7.7-4.8c0.9,0,1.6,0.1,1.6,0.1c0-1.7,0-2.6-0.5-3.4s-1.5-1.2-3.1-1.2c-2.2,0-4,0.8-4,0.8h-0.2V94.1z M412,107.3
		c1.3,0,2.5-0.6,3.1-1.8c0.6-1.1,0.6-2.5,0.6-3.3V102h-0.9c-2,0-5.5,0-5.5,2.8C409.3,106.3,410.3,107.3,412,107.3z"/>
	<path class="st2" d="M436,96.3h-0.2c0,0-1.8-0.7-3.5-0.7c-1.8,0-2.7,0.8-2.7,1.9c0,3.1,7.2,2.2,7.2,7.5c0,3.1-2.5,4.5-5.9,4.5
		c-2.5,0-4.1-0.8-4.1-0.8v-2.3h0.2c0,0,2.1,0.9,4.1,0.9c1.9,0,2.9-0.9,2.9-2.1c0-3.4-7.2-2.5-7.2-7.4c0-2.7,2.1-4.3,5.6-4.3
		c2.1,0,3.6,0.6,3.6,0.6V96.3z"/>
	<path class="st2" d="M447.3,89.1c0,0.9-0.7,1.7-1.7,1.7c-1.1,0-1.7-0.8-1.7-1.7s0.7-1.7,1.7-1.7C446.6,87.3,447.3,88.1,447.3,89.1z
		 M446.9,93.7v15.5h-2.7V93.7H446.9z"/>
	<path class="st2" d="M457.5,93.7l0.6,2.7c0.4-1.8,1.8-3,4.5-3c2.4,0,3.7,0.9,4.5,2c0.9,1.3,0.9,3,0.9,4.7v9.2h-2.7V100
		c0-1.1,0-2.2-0.6-3.1c-0.6-0.9-1.5-1.3-2.9-1.3c-3.2,0-3.6,2.6-3.6,4v9.6h-2.7V93.7H457.5z"/>
	<path class="st2" d="M481.9,103.3c-0.8,0-1.5-0.1-2.1-0.3c-0.5,0.2-1.3,0.7-1.3,1.7c0,1.4,1.4,1.4,2.3,1.4h2.9c1.7,0,5.8,0,5.8,3.9
		c0,3.3-2.8,5.1-8,5.1c-4.7,0-6.8-1.5-6.8-3.9c0-2.8,2.9-3.3,3-3.3c-0.1,0-1.9-0.6-1.9-2.5c0-2,1.9-2.6,2.8-2.8
		c-1.6-0.8-2.6-2.3-2.6-4.3c0-3.1,2.3-5,5.9-5c1.7,0,3.1,0.4,4.1,1.2c0.7-1.7,2.3-1.7,3.2-1.7h0.3v2.3c0,0-0.5-0.1-1.2-0.1
		c-0.9,0-1.3,0.2-1.5,0.3c0.6,0.8,0.9,1.8,0.9,2.9C487.8,101.4,485.5,103.3,481.9,103.3z M478.8,108.4c0,0-1.5,0.7-1.5,2.4
		c0,1.6,1.3,2.5,4.3,2.5c3.3,0,5.2-1,5.2-2.8c0-2-2.3-2-3.3-2H478.8z M485.1,98.3c0-1.9-1.1-3.1-3.1-3.1c-2,0-3.1,1.1-3.1,3.1
		c0,1.9,1.1,3,3.1,3C483.9,101.3,485.1,100.2,485.1,98.3z"/>
	<path class="st2" d="M521.8,108.7c0,0-1.9,0.7-4.7,0.7c-7.2,0-10.1-5.1-10.1-11c0-5.9,2.9-11,10.1-11c2.7,0,4.7,0.7,4.7,0.7v2.2
		h-0.2c0,0-2-0.9-4.3-0.9c-5.1,0-7.3,4-7.3,8.8c0,4.9,2.2,8.9,7.3,8.9c2.3,0,4.3-0.9,4.3-0.9h0.2V108.7z"/>
	<path class="st2" d="M535.6,109.6c-4.5,0-7.2-2.9-7.2-8.1c0-5.2,2.6-8.2,7.2-8.2c4.5,0,7.2,2.9,7.2,8.1
		C542.8,106.6,540.2,109.6,535.6,109.6z M539.9,101.5c0-4-1.4-6.1-4.3-6.1c-2.9,0-4.3,2.2-4.3,6.1c0,4,1.4,6.1,4.3,6.1
		C538.5,107.5,539.9,105.3,539.9,101.5z"/>
	<path class="st2" d="M552.4,93.7l0.6,2.7c0.4-1.7,1.6-3,4.4-3c2.8,0,4.1,1.3,4.7,3.2c0.7-2.1,2.1-3.2,4.6-3.2c2.4,0,3.6,1,4.3,2
		c0.8,1.2,0.9,2.7,0.9,4.7v9.2h-2.7V100c0-1.4-0.1-2.3-0.6-3.1c-0.5-0.8-1.3-1.3-2.7-1.3c-3,0-3.4,2.6-3.4,4v9.6h-2.7V100
		c0-1.4-0.1-2.3-0.6-3.1c-0.5-0.8-1.3-1.3-2.7-1.3c-3,0-3.4,2.6-3.4,4v9.6h-2.7V93.7H552.4z"/>
	<path class="st2" d="M580.3,114.9V93.7h2.1l0.6,2.7c0.5-1.9,2.3-3.1,4.8-3.1c4.1,0,6.5,3.1,6.5,8c0,5-2.4,8.2-6.7,8.2
		c-2.4,0-3.9-1-4.5-2.8v8.2H580.3z M591.4,101.4c0-3.4-1.2-6-4.2-6c-3,0-4.2,2.5-4.2,6c0,3.5,1.2,6,4.2,6
		C590.2,107.4,591.4,104.9,591.4,101.4z"/>
	<path class="st2" d="M602,94.1c0,0,1.8-0.7,4.6-0.7c2.2,0,4.1,0.4,5.2,1.9c0.8,1.2,0.8,2.8,0.8,4.1v5.8c0,0.9,0,2.1,1.5,2.1
		c0.4,0,0.9-0.1,0.9-0.1v2c0,0-0.7,0.2-1.8,0.2c-1.8,0-2.9-0.7-3.1-2.8c-0.5,1.7-2.3,2.9-4.6,2.9c-3,0-4.9-1.8-4.9-4.5
		c0-3.1,2.5-4.8,7.7-4.8c0.9,0,1.6,0.1,1.6,0.1c0-1.7,0-2.6-0.5-3.4c-0.5-0.8-1.5-1.2-3.1-1.2c-2.2,0-4,0.8-4,0.8H602V94.1z
		 M606.1,107.3c1.3,0,2.5-0.6,3.1-1.8c0.6-1.1,0.6-2.5,0.6-3.3V102h-0.9c-2,0-5.5,0-5.5,2.8C603.4,106.3,604.4,107.3,606.1,107.3z"
		/>
	<path class="st2" d="M623.6,93.7l0.6,2.7c0.4-1.8,1.8-3,4.5-3c2.4,0,3.7,0.9,4.5,2c0.9,1.3,0.9,3,0.9,4.7v9.2h-2.7V100
		c0-1.1,0-2.2-0.6-3.1c-0.6-0.9-1.5-1.3-2.9-1.3c-3.2,0-3.6,2.6-3.6,4v9.6h-2.7V93.7H623.6z"/>
	<path class="st2" d="M649.8,109c-1.4,3.7-2.5,6.1-6.2,6.1c-1.1,0-2-0.2-2-0.2v-2.2h0.2c0,0,1,0.4,1.9,0.4c1.8,0,2.6-1.5,3.6-4.2
		l-6.2-15h3.1l4.5,11.8l4.3-11.8h2.6L649.8,109z"/>
</g>
</svg>
