<?xml version="1.0" encoding="utf-8"?>
<!-- Generator: Adobe Illustrator 25.2.0, SVG Export Plug-In . SVG Version: 6.00 Build 0)  -->
<svg version="1.1" id="Layer_1" xmlns="http://www.w3.org/2000/svg" xmlns:xlink="http://www.w3.org/1999/xlink" x="0px" y="0px"
	 viewBox="0 0 364.5 175.9" style="enable-background:new 0 0 364.5 175.9;" xml:space="preserve">
<style type="text/css">
	.st0{fill:#C12F41;}
	.st1{fill:#003C71;}
	.st2{fill:#C52F40;}
	.st3{fill:#878787;}
	.st4{fill:#FFFFFF;}
</style>
<g>
	<g>
		<path class="st4" d="M33.2,46.1c-2,0-4.3-1.1-5.5-2.7c-1,8-4.6,12.9-13.2,12.9c-10.6,0-12.9-7.4-12.9-18.3H5
			c0,11.1,2.5,14.7,9.6,14.7c6.2,0,9.8-3.8,9.8-14.7V15.4h3.6v21.7c0,3.4,2.4,5.5,5.1,5.5h1.5c0.5,0,0.9,0,0.9,0.6v2.4
			c0,0.3-0.3,0.5-0.9,0.5H33.2z"/>
		<path class="st4" d="M43.3,42.6V27.8H47v18.3H34.8c-0.6,0-0.9-0.2-0.9-0.5v-2.4c0-0.6,0.4-0.6,0.9-0.6H43.3z M35.5,50.2h3.7v5
			h-3.7V50.2z M42.8,50.2h3.7v5h-3.7V50.2z"/>
		<path class="st4" d="M54.5,55.7v-3.5c0.8,0.4,2.2,0.7,3.3,0.7c4.9,0,7.4-1.1,8.5-6.8h-5.1c-6,0-9.5-4.3-9.5-10.1
			c0-5.7,2.4-11,9.5-11s9.5,4.7,9.5,12.9c0,1.8-0.1,3.3-0.2,4.8h6.1c0.5,0,0.9,0,0.9,0.6v2.4c0,0.3-0.3,0.5-0.9,0.5h-6.5
			c-1.3,7.5-4.9,10.2-11.7,10.2C56,56.4,54.5,55.7,54.5,55.7z M61.2,42.6h5.5c0.1-1.5,0.2-3.1,0.2-5c0-6.1-1.8-9-5.6-9
			c-3.9,0-5.7,3.1-5.7,7.4S57.5,42.6,61.2,42.6z"/>
		<path class="st4" d="M83.9,42.6c-1.1,2.3-3.7,3.5-5.9,3.5h-1.5c-0.6,0-0.9-0.2-0.9-0.5v-2.4c0-0.6,0.4-0.6,0.9-0.6H78
			c2.6,0,4.6-1.1,4.7-5.4v-0.3c0-6.7,3.9-10.6,10.1-10.6c6.2,0,10.1,3.9,10.1,10.6v0.3c0.1,4.3,2.1,5.4,4.7,5.4h1.4
			c0.5,0,0.9,0,0.9,0.6v2.4c0,0.3-0.3,0.5-0.9,0.5h-1.5c-2.2,0-4.8-1.2-5.9-3.5c-1.6,3.1-4.6,4.8-8.9,4.8S85.4,45.7,83.9,42.6z
			 M99,36.9c0-4.7-2.6-7-6.3-7c-3.7,0-6.3,2.3-6.3,7s2.6,7,6.3,7C96.4,43.9,99,41.6,99,36.9z"/>
		<path class="st4" d="M127.5,46.1c-2.4,0-5.3-1.7-6.1-3.7c-1.3,2.5-3.8,3.7-6.3,3.7H109c-0.6,0-0.9-0.2-0.9-0.5v-2.4
			c0-0.6,0.4-0.6,0.9-0.6h6.2c1.9,0,3.6-1.2,3.6-4.3V27.8h3.6v9c0,3.4,2.3,5.8,5.1,5.8h1.8c0.5,0,0.9,0,0.9,0.6v2.4
			c0,0.3-0.3,0.5-0.9,0.5H127.5z M114.9,15.4h3.7v5h-3.7V15.4z M122.2,15.4h3.7v5h-3.7V15.4z"/>
		<path class="st4" d="M145,46.1c-2.4,0-5.3-1.7-6.1-3.7c-1.3,2.5-3.8,3.7-6.3,3.7h-3.3c-0.6,0-0.9-0.2-0.9-0.5v-2.4
			c0-0.6,0.4-0.6,0.9-0.6h3.3c1.9,0,3.6-1.2,3.6-4.3v-23h3.6v21.5c0,3.4,2.3,5.8,5.1,5.8h1.7c0.5,0,0.9,0,0.9,0.6v2.4
			c0,0.3-0.3,0.5-0.9,0.5H145z"/>
		<path class="st4" d="M153.9,42.6V15.4h3.6v30.7h-10.8c-0.6,0-0.9-0.2-0.9-0.5v-2.4c0-0.6,0.4-0.6,0.9-0.6H153.9z"/>
		<path class="st4" d="M197.9,15.4v22.1c0,11.6-3,18.9-13.6,18.9c-10.6,0-12.9-7.4-12.9-18.3h3.4c0,11.1,2.5,14.7,9.6,14.7
			c6.2,0,9.8-3.8,9.8-14.7V15.4H197.9z"/>
		<path class="st4" d="M211,42.6c0.5,0,0.9,0,0.9,0.6v2.4c0,0.3-0.3,0.5-0.9,0.5h-7.5V15.4h3.7v27.3H211z"/>
		<path class="st4" d="M229.6,46.1c-2.4,0-5.3-1.7-6.1-3.7c-1.3,2.5-3.8,3.7-6.3,3.7H211c-0.6,0-0.9-0.2-0.9-0.5v-2.4
			c0-0.6,0.4-0.6,0.9-0.6h6.2c1.9,0,3.6-1.2,3.6-4.3V27.8h3.6v9c0,3.4,2.3,5.8,5.1,5.8h1.8c0.5,0,0.9,0,0.9,0.6v2.4
			c0,0.3-0.3,0.5-0.9,0.5H229.6z M221,15.4h3.7v5H221V15.4z"/>
		<path class="st4" d="M240,42.6V27.8h3.7v18.3h-12.2c-0.6,0-0.9-0.2-0.9-0.5v-2.4c0-0.6,0.4-0.6,0.9-0.6H240z M232.2,50.2h3.7v5
			h-3.7V50.2z M239.5,50.2h3.7v5h-3.7V50.2z"/>
		<path class="st4" d="M280.4,46.1c-3.7,0-6-2.3-7-5c-1.3,1.8-3.6,3.5-6.4,3.5c-4.3,0-8.9-2.6-8.9-9.1c0-5.5,2.5-9.8,9.1-9.8h9.1
			v11.5c0,4.3,1.9,5.4,4.1,5.4h1.2c0.5,0,0.9,0,0.9,0.6v2.4c0,0.3-0.3,0.5-0.9,0.5H280.4z M272.6,35.7v-6.5h-5.5
			c-3.1,0-5.5,2.5-5.5,6.3s2.7,5.5,5.3,5.5C269.8,41.1,272.6,39.5,272.6,35.7z M262.7,15.4h3.7v5h-3.7V15.4z M270,15.4h3.7v5H270
			V15.4z"/>
		<path class="st4" d="M303.3,42.6v-6c0-5.5-2.9-7.4-6.2-7.4h-13.2v-3.5l10.3-10.4h4.9L289,25.8h7.9c7.5,0,10.2,4.7,10.2,10.9v9.5
			h-25.5c-0.6,0-0.9-0.2-0.9-0.5v-2.4c0-0.6,0.4-0.6,0.9-0.6H303.3z"/>
		<path class="st4" d="M327.3,42.6c0.5,0,0.9,0,0.9,0.6v2.4c0,0.3-0.3,0.5-0.9,0.5H325c-1.7,0-4.2-1.2-4.6-3.2v3.4
			c0,6.5-1.9,10.1-6.8,10.1c-2.4,0-3.3-0.8-3.3-0.8v-3.5c0.9,0.5,1.8,0.7,2.8,0.7c2.4,0,3.7-1.5,3.7-6.5V27.8h3.7v10.1
			c0,3.1,2,4.7,4.6,4.7H327.3z"/>
		<path class="st4" d="M331.4,42.6c1.5,0,2.4-1.1,2.4-4.3v-8.8h3.7v8.9c0,3.1,1.7,4.3,4.6,4.3c3,0,4.4-1.3,4.4-4.3v-9.8h3.7v9.6
			c0,3.1,1.5,4.3,3.6,4.3h6.1V27.8h3.7v18.3h-9.7c-1.5,0-4-1.1-4.6-3.4h-0.1c-1.3,2.4-3.8,3.5-6.6,3.5c-2.2,0-4.9-0.9-5.6-3.3h-0.1
			c-0.8,2.2-2.4,3.2-4.9,3.2h-4.6c-0.6,0-0.9-0.2-0.9-0.5v-2.4c0-0.6,0.4-0.6,0.9-0.6H331.4z M342.8,15.4h3.7v5h-3.7V15.4z
			 M346.5,8.8h3.7v5h-3.7V8.8z M350.1,15.4h3.7v5h-3.7V15.4z"/>
		<path class="st4" d="M8,95.3v-8.2c0-0.2,0-0.5-0.2-0.6L0,73h3.4c2,3.6,5.3,9.4,6.3,11.3c1-1.9,4.3-7.7,6.4-11.3h3.2l-8.1,13.6
			c-0.1,0.1-0.1,0.3-0.1,0.6v8.1H8z"/>
		<path class="st4" d="M22.2,88.6l-2.4,6.7h-3l8-22.3h3.6l8.3,22.3h-3.2l-2.5-6.7H22.2z M30.4,86.1c-2.1-5.9-3.3-9-3.8-10.7h0
			c-0.5,1.9-1.9,5.7-3.6,10.7H30.4z"/>
		<path class="st4" d="M40.3,95.3V73h3.9c3.2,5.2,10.2,16.3,11.4,18.7h0c-0.2-2.9-0.2-6.4-0.2-10V73h2.8v22.3h-3.7
			C51.6,90.5,44.3,78.5,43,76h-0.1C43,78.6,43,82.3,43,86.4v8.9H40.3z"/>
		<path class="st4" d="M67.2,88.6l-2.4,6.7h-3l8-22.3h3.6l8.3,22.3h-3.2L76,88.6H67.2z M75.3,86.1c-2.1-5.9-3.3-9-3.8-10.7h0
			c-0.5,1.9-1.9,5.7-3.6,10.7H75.3z"/>
		<path class="st4" d="M85.2,73h3v19.8h11.6l-0.4,2.5H85.2V73z"/>
		<path class="st4" d="M111.3,73h14.3v2.5h-11.4v7.2h10.7v2.5h-10.7v10h-2.9V73z"/>
		<path class="st4" d="M128.8,75.3v-3.5h2.8v3.5H128.8z M128.8,79h2.8v16.3h-2.8V79z"/>
		<path class="st4" d="M136.4,83.1c0-1.4,0-2.9,0-4.1h2.7c0.1,0.5,0.1,2.2,0.1,2.7c0.6-1.4,2-3,5.1-3c3.1,0,5.5,1.9,5.5,6.2v10.5
			h-2.8V85.2c0-2.5-1-4.1-3.4-4.1c-3.1,0-4.3,2.3-4.3,5.6v8.6h-2.8V83.1z"/>
		<path class="st4" d="M166.5,91.7c0,1.5,0.1,3.1,0.2,3.6H164c-0.1-0.4-0.2-1.1-0.3-2.1c-0.6,1.1-1.9,2.5-5,2.5
			c-3.8,0-5.5-2.5-5.5-5c0-3.6,2.9-5.3,7.7-5.3h2.8V84c0-1.4-0.4-3.2-3.5-3.2c-2.7,0-3.2,1.3-3.5,2.6H154c0.2-2.2,1.6-4.8,6.3-4.8
			c4,0,6.2,1.6,6.2,5.3V91.7z M163.7,87.4h-2.6c-3.2,0-5,0.9-5,3.2c0,1.7,1.2,2.9,3.2,2.9c3.9,0,4.4-2.6,4.4-5.6V87.4z"/>
		<path class="st4" d="M171.3,83.1c0-1.4,0-2.9,0-4.1h2.7c0.1,0.5,0.1,2.2,0.1,2.7c0.6-1.4,2-3,5.1-3c3.1,0,5.5,1.9,5.5,6.2v10.5
			h-2.8V85.2c0-2.5-1-4.1-3.4-4.1c-3.1,0-4.3,2.3-4.3,5.6v8.6h-2.8V83.1z"/>
		<path class="st4" d="M202.3,90.3c-0.7,2.8-2.6,5.4-6.7,5.4c-4.5,0-7.2-3.2-7.2-8.4c0-4.6,2.6-8.6,7.4-8.6c4.7,0,6.3,3.3,6.5,5.4
			h-2.8c-0.4-1.6-1.4-3.1-3.8-3.1c-2.9,0-4.5,2.5-4.5,6.2c0,3.7,1.6,6.2,4.4,6.2c2,0,3.2-1.1,3.9-3H202.3z"/>
		<path class="st4" d="M207.5,87.7c0,3.3,1.7,5.7,4.5,5.7c2.6,0,3.4-1.3,3.9-2.5h2.9c-0.6,2.1-2.4,4.9-6.9,4.9
			c-5.1,0-7.2-4.2-7.2-8.3c0-4.8,2.4-8.7,7.4-8.7c5.3,0,7,4.2,7,7.7c0,0.5,0,0.9,0,1.3H207.5z M216.1,85.7c0-2.7-1.4-4.8-4.1-4.8
			c-2.9,0-4.1,2-4.4,4.8H216.1z"/>
		<path class="st4" d="M248.9,89c-1,3.8-3.8,6.6-8.9,6.6c-6.7,0-10-5.1-10-11.4c0-6.1,3.4-11.5,10.1-11.5c5.3,0,8.1,3,8.8,6.7h-3
			c-0.8-2.4-2.4-4.3-5.9-4.3c-4.9,0-6.9,4.5-6.9,9c0,4.4,1.9,9,7.1,9c3.4,0,4.9-2,5.8-4.1H248.9z"/>
		<path class="st4" d="M266.6,87.1c0,4.7-2.7,8.6-7.7,8.6c-4.6,0-7.5-3.6-7.5-8.5c0-4.8,2.8-8.5,7.7-8.5
			C263.7,78.7,266.6,82,266.6,87.1z M254.4,87.2c0,3.6,1.8,6.2,4.7,6.2c3,0,4.6-2.5,4.6-6.2c0-3.7-1.7-6.2-4.7-6.2
			S254.4,83.5,254.4,87.2z"/>
		<path class="st4" d="M270.3,83.2c0-1.4,0-2.9,0-4.2h2.7c0.1,0.5,0.1,1.7,0.1,2.5c0.7-1.4,2.1-2.9,4.7-2.9c2.3,0,3.9,1.2,4.5,2.9
			c0.9-1.5,2.4-2.9,5.2-2.9c2.7,0,5.1,1.6,5.1,6v10.7h-2.8V84.9c0-1.9-0.7-3.8-3.2-3.8c-2.7,0-3.8,2-3.8,4.9v9.3h-2.8V85
			c0-2.1-0.6-3.9-3.1-3.9c-2.6,0-3.8,2.1-3.8,5.2v9h-2.8V83.2z"/>
		<path class="st4" d="M297.4,101.7V83c0-1.3,0-2.7,0-4h2.7c0.1,0.5,0.1,1.5,0.1,2.6c0.9-1.7,2.5-3,5.3-3c3.8,0,6.5,3.1,6.5,8.1
			c0,5.8-3.1,8.9-7.1,8.9c-2.6,0-4-1.1-4.7-2.4v8.4H297.4z M304.8,81.1c-3.4,0-4.7,2.1-4.7,6.1c0,3.8,1.1,6.2,4.5,6.2
			c3,0,4.6-2.4,4.6-6.4C309.1,83.4,307.5,81.1,304.8,81.1z"/>
		<path class="st4" d="M327.8,91.7c0,1.5,0.1,3.1,0.2,3.6h-2.7c-0.1-0.4-0.2-1.1-0.3-2.1c-0.6,1.1-1.9,2.5-5,2.5
			c-3.8,0-5.5-2.5-5.5-5c0-3.6,2.9-5.3,7.7-5.3h2.8V84c0-1.4-0.5-3.2-3.5-3.2c-2.7,0-3.2,1.3-3.5,2.6h-2.7c0.2-2.2,1.6-4.8,6.3-4.8
			c4,0,6.2,1.6,6.2,5.3V91.7z M325,87.4h-2.6c-3.2,0-5,0.9-5,3.2c0,1.7,1.2,2.9,3.2,2.9c3.9,0,4.4-2.6,4.4-5.6V87.4z"/>
		<path class="st4" d="M332.6,83.1c0-1.4,0-2.9,0-4.1h2.7c0.1,0.5,0.1,2.2,0.1,2.7c0.6-1.4,2-3,5.1-3c3.1,0,5.5,1.9,5.5,6.2v10.5
			h-2.8V85.2c0-2.5-1-4.1-3.4-4.1c-3.1,0-4.3,2.3-4.3,5.6v8.6h-2.8V83.1z"/>
		<path class="st4" d="M351.6,79c2.6,7.8,4.1,12.1,4.5,13.8h0c0.5-1.9,1.7-5.6,4.3-13.8h2.8l-5.8,17c-1.6,4.8-2.9,6-6.2,6
			c-0.5,0-1.1,0-1.8-0.1v-2.4c0.4,0,0.9,0.1,1.3,0.1c2.1,0,2.8-0.9,3.8-3.6L348.5,79H351.6z"/>
	</g>
	<g>
		<path class="st2" d="M1.9,118.2l-0.2-0.7l3.6-1l0.2,0.7L1.9,118.2z M2.3,119.5l-0.2-0.7l3.6-1l0.2,0.7L2.3,119.5z"/>
		<path class="st2" d="M6,133.4c0.2,0,0.4,0,0.4,0.2v1c0,0.1-0.1,0.2-0.4,0.2H2.8v-12.7h1.5v11.3H6z"/>
		<path class="st2" d="M6,134.9c-0.2,0-0.4-0.1-0.4-0.2v-1c0-0.2,0.2-0.2,0.4-0.2h2.4v-0.1c-0.4-0.3-1.2-1.8-1.2-2.8
			c0-2.8,1.6-4.4,4.2-4.4s4.2,1.5,4.2,4.4c0,1.1-0.8,2.4-1.2,2.8v0.1h2.5c0.2,0,0.4,0,0.4,0.2v1c0,0.1-0.1,0.2-0.4,0.2H6z
			 M8.8,130.5c0,1.9,0.9,3,2.6,3s2.6-1.1,2.6-3c0-1.9-0.9-2.9-2.6-2.9S8.8,128.6,8.8,130.5z M9.1,122.2h1.5v2.1H9.1V122.2z
			 M12.1,122.2h1.5v2.1h-1.5V122.2z"/>
		<path class="st2" d="M20.4,133.4v-6.1h1.5v7.6h-5c-0.3,0-0.4-0.1-0.4-0.2v-1c0-0.2,0.2-0.2,0.4-0.2H20.4z M20.4,136.5h1.5v2.1
			h-1.5V136.5z"/>
		<path class="st2" d="M27.4,133.4c0.2,0,0.4,0,0.4,0.2v1c0,0.1-0.1,0.2-0.4,0.2h-3.1v-12.7h1.5v11.3H27.4z"/>
		<path class="st2" d="M29,133.4c0.6,0,1-0.5,1-1.8V128h1.5v3.7c0,1.3,0.7,1.8,1.9,1.8c1.2,0,1.8-0.5,1.8-1.8v-4h1.5v4
			c0,1.3,0.6,1.8,1.5,1.8h2.5v-6.1h1.5v7.6h-4c-0.6,0-1.7-0.5-1.9-1.4h-0.1c-0.6,1-1.6,1.5-2.7,1.5c-0.9,0-2-0.4-2.3-1.4h-0.1
			c-0.3,0.9-1,1.3-2,1.3h-1.9c-0.2,0-0.4-0.1-0.4-0.2v-1c0-0.2,0.2-0.2,0.4-0.2H29z"/>
		<path class="st2" d="M48.1,132.9h1.4c0,3.6,1.6,5.4,5,5.4c2.3,0,4.2-0.7,4.2-2.3c0-0.7-0.5-1.2-1-1.2c-0.5,0-1.2-0.2-1.9-0.6v-1.4
			c0.6,0.3,1.9,0.6,2.6,0.6h2.4c0.2,0,0.4,0,0.4,0.2v1c0,0.1-0.1,0.2-0.4,0.2h-1.4c0.3,0.4,0.5,1,0.5,1.5c0,1.9-2,3.4-5.5,3.4
			C49.9,139.8,48.1,137,48.1,132.9z M52.4,142.2h1.5v2.1h-1.5V142.2z M55.4,142.2h1.5v2.1h-1.5V142.2z"/>
		<path class="st2" d="M67.3,134.9c-1,0-2.2-0.7-2.5-1.5c-0.6,1-1.6,1.5-2.6,1.5h-1.4c-0.2,0-0.4-0.1-0.4-0.2v-1
			c0-0.2,0.2-0.2,0.4-0.2h1.4c0.8,0,1.5-0.5,1.5-1.8v-9.5h1.5v8.9c0,1.4,1,2.4,2.1,2.4H68c0.2,0,0.4,0,0.4,0.2v1
			c0,0.1-0.1,0.2-0.4,0.2H67.3z"/>
		<path class="st2" d="M71.5,133.4v-6.1H73v7.6h-5c-0.2,0-0.4-0.1-0.4-0.2v-1c0-0.2,0.2-0.2,0.4-0.2H71.5z M68.3,136.5h1.5v2.1h-1.5
			V136.5z M71.3,136.5h1.5v2.1h-1.5V136.5z"/>
		<path class="st2" d="M76.1,138.8v-1.4c0.3,0.2,0.9,0.3,1.4,0.3c2,0,3.1-0.5,3.5-2.8h-2.1c-2.5,0-3.9-1.8-3.9-4.2
			c0-2.4,1-4.6,3.9-4.6c2.9,0,3.9,2,3.9,5.3c0,0.7,0,1.4-0.1,2h2.5c0.2,0,0.4,0,0.4,0.2v1c0,0.1-0.1,0.2-0.4,0.2h-2.7
			c-0.6,3.1-2,4.2-4.8,4.2C76.8,139.1,76.1,138.8,76.1,138.8z M78.9,133.4h2.3c0.1-0.6,0.1-1.3,0.1-2.1c0-2.5-0.7-3.7-2.3-3.7
			s-2.3,1.3-2.3,3.1C76.6,132.5,77.4,133.4,78.9,133.4z"/>
		<path class="st2" d="M88.3,133.4c-0.4,0.9-1.5,1.4-2.4,1.4h-0.6c-0.2,0-0.4-0.1-0.4-0.2v-1c0-0.2,0.2-0.2,0.4-0.2h0.6
			c1.1,0,1.9-0.5,2-2.2V131c0-2.8,1.6-4.4,4.2-4.4c2.6,0,4.2,1.6,4.2,4.4v0.1c0,1.8,0.9,2.2,2,2.2h0.6c0.2,0,0.4,0,0.4,0.2v1
			c0,0.1-0.1,0.2-0.4,0.2H98c-0.9,0-2-0.5-2.4-1.4c-0.7,1.3-1.9,2-3.7,2C90.2,135.4,88.9,134.7,88.3,133.4z M94.5,131
			c0-1.9-1.1-2.9-2.6-2.9c-1.5,0-2.6,1-2.6,2.9c0,1.9,1.1,2.9,2.6,2.9C93.5,133.9,94.5,133,94.5,131z"/>
		<path class="st2" d="M106.3,134.9c-1,0-2.2-0.7-2.5-1.5c-0.6,1-1.6,1.5-2.6,1.5h-2.6c-0.2,0-0.4-0.1-0.4-0.2v-1
			c0-0.2,0.2-0.2,0.4-0.2h2.6c0.8,0,1.5-0.5,1.5-1.8v-4.3h1.5v3.7c0,1.4,1,2.4,2.1,2.4h0.8c0.2,0,0.4,0,0.4,0.2v1
			c0,0.1-0.1,0.2-0.4,0.2H106.3z M101.1,122.2h1.5v2.1h-1.5V122.2z M104.1,122.2h1.5v2.1h-1.5V122.2z"/>
		<path class="st2" d="M110.1,133.4v-11.3h1.5v12.7h-4.5c-0.3,0-0.4-0.1-0.4-0.2v-1c0-0.2,0.2-0.2,0.4-0.2H110.1z"/>
		<path class="st2" d="M113.9,134.9v-12.7h1.5v12.7H113.9z"/>
		<path class="st2" d="M127.9,133.4c0.2,0,0.4,0,0.4,0.2v1c0,0.1-0.1,0.2-0.4,0.2h-0.9c-0.7,0-1.7-0.5-1.9-1.3v1.4
			c0,2.7-0.8,4.2-2.8,4.2c-1,0-1.4-0.3-1.4-0.3v-1.4c0.4,0.2,0.7,0.3,1.2,0.3c1,0,1.5-0.6,1.5-2.7v-7.6h1.5v4.2c0,1.3,0.8,2,1.9,2
			H127.9z"/>
		<path class="st2" d="M135.5,134.9c-1,0-2.2-0.7-2.5-1.5c-0.6,1-1.6,1.5-2.6,1.5h-2.6c-0.2,0-0.4-0.1-0.4-0.2v-1
			c0-0.2,0.2-0.2,0.4-0.2h2.6c0.8,0,1.5-0.5,1.5-1.8v-4.3h1.5v3.7c0,1.4,1,2.4,2.1,2.4h0.8c0.2,0,0.4,0,0.4,0.2v1
			c0,0.1-0.1,0.2-0.4,0.2H135.5z M130.5,136.5h1.5v2.1h-1.5V136.5z M133.5,136.5h1.5v2.1h-1.5V136.5z"/>
		<path class="st2" d="M146.5,133.4c-0.1-0.3-0.4-1.6-0.5-2.5c-0.4-2.2-1.7-3.3-3.4-3.3c-1.5,0-3.1,1.2-3.4,2.5h-1.5
			c0.2-2.1,2.1-3.9,4.8-3.9c2.9,0,4.6,2.1,4.9,4.9c0.3,2.6,0.5,2.9,0.7,3.8h-11.9c-0.3,0-0.4-0.1-0.4-0.2v-1c0-0.2,0.2-0.2,0.4-0.2
			H146.5z M141.5,136.5h1.5v2.1h-1.5V136.5z"/>
		<path class="st2" d="M149.7,120.3h0.7v-0.1c-0.2-0.2-0.3-0.6-0.3-0.9c0-0.7,0.4-1.3,1.4-1.3c0.7,0,1.3,0.4,1.3,1.3H152
			c0-0.3-0.3-0.7-0.7-0.7c-0.4,0-0.7,0.3-0.7,0.8c0,0.6,0.3,0.8,0.8,0.8h1.3v0.6h-3.1V120.3z M153.5,133.4c0.2,0,0.4,0,0.4,0.2v1
			c0,0.1-0.1,0.2-0.4,0.2h-3.1v-12.7h1.5v11.3H153.5z"/>
		<path class="st2" d="M161.2,134.9c-1,0-2.2-0.7-2.5-1.5c-0.6,1-1.6,1.5-2.6,1.5h-2.6c-0.3,0-0.4-0.1-0.4-0.2v-1
			c0-0.2,0.2-0.2,0.4-0.2h2.6c0.8,0,1.5-0.5,1.5-1.8v-4.3h1.5v3.7c0,1.4,1,2.4,2.1,2.4h0.8c0.2,0,0.4,0,0.4,0.2v1
			c0,0.1-0.1,0.2-0.4,0.2H161.2z M156,122.2h1.5v2.1H156V122.2z M159,122.2h1.5v2.1H159V122.2z"/>
		<path class="st2" d="M168.4,134.9c-1,0-2.2-0.7-2.5-1.5c-0.6,1-1.6,1.5-2.6,1.5h-1.4c-0.2,0-0.4-0.1-0.4-0.2v-1
			c0-0.2,0.2-0.2,0.4-0.2h1.4c0.8,0,1.5-0.5,1.5-1.8v-9.5h1.5v8.9c0,1.4,1,2.4,2.1,2.4h0.7c0.2,0,0.4,0,0.4,0.2v1
			c0,0.1-0.1,0.2-0.4,0.2H168.4z"/>
		<path class="st2" d="M172.1,133.4v-11.3h1.5v12.7h-4.5c-0.2,0-0.4-0.1-0.4-0.2v-1c0-0.2,0.2-0.2,0.4-0.2H172.1z"/>
		<path class="st2" d="M188.7,134.9c-1.5,0-2.5-0.9-2.9-2.1c-0.6,0.8-1.5,1.4-2.6,1.4c-1.8,0-3.7-1.1-3.7-3.7c0-2.3,1-4,3.8-4h3.7
			v4.7c0,1.8,0.8,2.2,1.7,2.2h0.5c0.2,0,0.4,0,0.4,0.2v1c0,0.1-0.1,0.2-0.4,0.2H188.7z M185.5,130.6v-2.7h-2.3c-1.3,0-2.3,1-2.3,2.6
			c0,1.6,1.1,2.3,2.2,2.3C184.4,132.8,185.5,132.1,185.5,130.6z M181.4,122.2h1.5v2.1h-1.5V122.2z M184.5,122.2h1.5v2.1h-1.5V122.2z
			"/>
		<path class="st2" d="M192.8,133.4v-6.1h1.5v7.6h-5c-0.2,0-0.4-0.1-0.4-0.2v-1c0-0.2,0.2-0.2,0.4-0.2H192.8z M189.5,136.5h1.5v2.1
			h-1.5V136.5z M192.6,136.5h1.5v2.1h-1.5V136.5z"/>
		<path class="st2" d="M196.3,134.9v-1.4h5.1v-2.3c0-1.7-0.8-3.3-2.7-3.3h-1.6v-1.4h1.4c2.6,0,4.5,1.4,4.5,4.8v3.6H196.3z"/>
		<path class="st2" d="M205.9,138.8v-1.4c0.3,0.2,0.9,0.3,1.4,0.3c2,0,3.1-0.5,3.5-2.8h-2.1c-2.5,0-3.9-1.8-3.9-4.2
			c0-2.4,1-4.6,3.9-4.6c2.9,0,3.9,2,3.9,5.3c0,0.7,0,1.4-0.1,2h2.5c0.2,0,0.4,0,0.4,0.2v1c0,0.1-0.1,0.2-0.4,0.2h-2.7
			c-0.6,3.1-2,4.2-4.8,4.2C206.5,139.1,205.9,138.8,205.9,138.8z M208.7,133.4h2.3c0.1-0.6,0.1-1.3,0.1-2.1c0-2.5-0.7-3.7-2.3-3.7
			s-2.3,1.3-2.3,3.1C206.3,132.5,207.1,133.4,208.7,133.4z"/>
		<path class="st2" d="M219.7,133.4L219.7,133.4c-1.2-1.2-1.8-5.1-3.1-6.4v-0.3h6.7c2,0,3,1.4,3,3.2c0,1-0.7,2.5-1.7,3.4v0.1
			c0.6,0,3.4,0,3.4,0c0.2,0,0.4,0,0.4,0.2v1c0,0.1-0.1,0.2-0.4,0.2H215c-0.2,0-0.4-0.1-0.4-0.2v-1c0-0.2,0.2-0.2,0.4-0.2H219.7z
			 M222,133.5c1.4,0,2.8-2.2,2.8-3.7c0-1-0.4-1.7-1.7-1.7h-4.3C219.6,128.9,220.5,133.5,222,133.5z"/>
		<path class="st2" d="M229.8,133.4c0.6,0,1-0.5,1-1.8V128h1.5v3.7c0,1.2,0.7,1.8,1.9,1.8c1.2,0,1.8-0.5,1.8-1.8v-4h1.5v4
			c0,1.3,0.8,1.8,2.1,1.8c1.2,0,1.8-0.5,1.8-1.8v-4.4h1.5v4.4c0,1.1,0.7,1.8,1.5,1.8h1.1c0.2,0,0.4,0,0.4,0.2v1
			c0,0.1-0.1,0.2-0.4,0.2h-1.1c-0.7,0-1.7-0.6-1.9-1.5h-0.1c-0.5,1-1.6,1.5-2.8,1.5c-0.9,0-2.3-0.3-2.8-1.3H237
			c-0.6,0.9-1.5,1.3-2.6,1.3c-0.9,0-2-0.4-2.3-1.4H232c-0.3,0.9-1,1.3-2,1.3h-1.9c-0.3,0-0.4-0.1-0.4-0.2v-1c0-0.2,0.2-0.2,0.4-0.2
			H229.8z"/>
		<path class="st2" d="M248.6,133.4v-11.3h1.5v12.7h-4.5c-0.2,0-0.4-0.1-0.4-0.2v-1c0-0.2,0.2-0.2,0.4-0.2H248.6z"/>
		<path class="st2" d="M252.4,134.9v-12.7h1.5v12.7H252.4z"/>
		<path class="st2" d="M259.7,131.4v-1.2h1.5v1.2c0,4.1,1.4,6.2,4.6,6.2c3.2,0,5.1-1.6,5.1-6.2V128h1.5v3.7c0,1.2,0.7,1.8,1.9,1.8
			c1.2,0,1.8-0.5,1.8-1.8v-4h1.5v4c0,1.2,0.8,1.8,2.1,1.8c1.2,0,1.8-0.5,1.8-1.8v-4.4h1.5v4.4c0,1.1,0.7,1.8,1.5,1.8h1.1
			c0.2,0,0.4,0,0.4,0.2v1c0,0.1-0.1,0.2-0.4,0.2h-1.1c-0.7,0-1.7-0.6-1.9-1.5h-0.1c-0.5,1-1.6,1.5-2.8,1.5c-0.9,0-2.3-0.3-2.8-1.3
			h-0.1c-0.6,0.9-1.5,1.3-2.6,1.3c-0.9,0-1.9-0.3-2.3-1.2c-0.5,3-2.3,5.4-6.4,5.4C261.9,139.1,259.7,136.4,259.7,131.4z"/>
		<path class="st2" d="M294.7,133.4v-2.5c0-2.3-1.2-3.1-2.6-3.1h-5.4v-1.4l4.3-4.3h2l-4.2,4.3h3.3c3.1,0,4.2,1.9,4.2,4.5v3.9h-10.5
			c-0.3,0-0.4-0.1-0.4-0.2v-1c0-0.2,0.2-0.2,0.4-0.2H294.7z"/>
		<path class="st2" d="M300.3,134.9v-7.6h1.5v7.6c0,2.7-0.8,4.2-2.8,4.2c-1,0-1.4-0.3-1.4-0.3v-1.4c0.4,0.2,0.7,0.3,1.2,0.3
			C299.7,137.6,300.3,137,300.3,134.9z"/>
		<path class="st2" d="M309.7,134.9h-2.1c-2.5,0-3.9-1.8-3.9-4.2c0-2.4,1-4.6,3.9-4.6c2.9,0,3.9,2,3.9,5.3c0,5.8-1.5,7.6-5.1,7.6
			c-1,0-1.5-0.3-1.5-0.3v-1.4c0.3,0.2,0.8,0.3,1.2,0.3C308.2,137.7,309.3,137.1,309.7,134.9z M309.9,133.4c0.1-0.6,0.1-1.3,0.1-2.1
			c0-2.5-0.8-3.7-2.3-3.7c-1.6,0-2.3,1.3-2.3,3.1c0,1.8,0.8,2.7,2.3,2.7H309.9z"/>
		<path class="st2" d="M312.8,120.3h0.7v-0.1c-0.2-0.2-0.3-0.6-0.3-0.9c0-0.7,0.4-1.3,1.4-1.3c0.7,0,1.3,0.4,1.3,1.3h-0.6
			c0-0.3-0.3-0.7-0.7-0.7c-0.4,0-0.7,0.3-0.7,0.8c0,0.6,0.3,0.8,0.8,0.8h1.3v0.6h-3.1V120.3z M313.5,134.9v-12.7h1.5v12.7H313.5z"/>
		<path class="st2" d="M330.2,134.9c-1.5,0-2.5-0.9-2.9-2.1c-0.6,0.8-1.5,1.4-2.6,1.4c-1.8,0-3.7-1.1-3.7-3.7c0-2.3,1-4,3.8-4h3.7
			v4.7c0,1.8,0.8,2.2,1.7,2.2h0.5c0.2,0,0.4,0,0.4,0.2v1c0,0.1-0.1,0.2-0.4,0.2H330.2z M327,130.6v-2.7h-2.3c-1.3,0-2.3,1-2.3,2.6
			c0,1.6,1.1,2.3,2.2,2.3C325.8,132.8,327,132.1,327,130.6z M322.9,122.2h1.5v2.1h-1.5V122.2z M325.9,122.2h1.5v2.1h-1.5V122.2z"/>
		<path class="st2" d="M339.7,133.4v-2.5c0-2.3-1.2-3.1-2.6-3.1h-5.4v-1.4l4.3-4.3h2l-4.2,4.3h3.3c3.1,0,4.2,1.9,4.2,4.5v3.9h-10.5
			c-0.2,0-0.4-0.1-0.4-0.2v-1c0-0.2,0.2-0.2,0.4-0.2H339.7z"/>
		<path class="st2" d="M349.6,133.4c0.2,0,0.4,0,0.4,0.2v1c0,0.1-0.1,0.2-0.4,0.2h-0.9c-0.7,0-1.7-0.5-1.9-1.3v1.4
			c0,2.7-0.8,4.2-2.8,4.2c-1,0-1.4-0.3-1.4-0.3v-1.4c0.4,0.2,0.7,0.3,1.2,0.3c1,0,1.5-0.6,1.5-2.7v-7.6h1.5v4.2c0,1.3,0.8,2,1.9,2
			H349.6z"/>
		<path class="st2" d="M351.3,133.4c0.6,0,1-0.5,1-1.8V128h1.5v3.7c0,1.3,0.7,1.8,1.9,1.8c1.2,0,1.8-0.5,1.8-1.8v-4h1.5v4
			c0,1.3,0.6,1.8,1.5,1.8h2.5v-6.1h1.5v7.6h-4c-0.6,0-1.7-0.5-1.9-1.4h-0.1c-0.6,1-1.6,1.5-2.7,1.5c-0.9,0-2-0.4-2.3-1.4h-0.1
			c-0.3,0.9-1,1.3-2,1.3h-1.9c-0.2,0-0.4-0.1-0.4-0.2v-1c0-0.2,0.2-0.2,0.4-0.2H351.3z M356,122.2h1.5v2.1H356V122.2z M357.5,119.4
			h1.5v2.1h-1.5V119.4z M359,122.2h1.5v2.1H359V122.2z"/>
		<path class="st2" d="M9.8,151.8v1.2h-5v4.5h4.4v1.2H4.8v5.1H3.3v-12H9.8z"/>
		<path class="st2" d="M16.8,164.1c-2.5,0-4-1.6-4-4.5c0-2.9,1.5-4.6,4-4.6c2.5,0,4,1.6,4,4.5C20.8,162.4,19.4,164.1,16.8,164.1z
			 M19.2,159.5c0-2.2-0.8-3.4-2.4-3.4c-1.6,0-2.4,1.2-2.4,3.4c0,2.2,0.8,3.4,2.4,3.4S19.2,161.7,19.2,159.5z"/>
		<path class="st2" d="M29.4,156.5c0,0-0.4-0.1-0.8-0.1c-2,0-2,1.5-2,2.3v5.1h-1.5v-8.7h1.2l0.3,1.7c0.3-1.4,1.4-1.7,2.7-1.7h0.3
			V156.5z"/>
		<path class="st2" d="M34.4,155.2l0.3,1.5c0.2-0.9,0.9-1.7,2.5-1.7c1.6,0,2.3,0.7,2.7,1.8c0.4-1.2,1.2-1.8,2.6-1.8
			c1.3,0,2,0.6,2.4,1.1c0.5,0.7,0.5,1.5,0.5,2.6v5.1h-1.5v-5.1c0-0.8,0-1.3-0.3-1.7c-0.3-0.4-0.8-0.7-1.5-0.7
			c-1.7,0-1.9,1.5-1.9,2.2v5.4h-1.5v-5.1c0-0.8,0-1.3-0.3-1.7c-0.3-0.4-0.8-0.7-1.5-0.7c-1.7,0-1.9,1.5-1.9,2.2v5.4h-1.5v-8.7H34.4z
			"/>
		<path class="st2" d="M56.2,163.6c0,0-1.1,0.4-2.5,0.4c-1.6,0-2.5-0.4-3.1-1.1c-0.7-0.8-1.1-1.9-1.1-3.4c0-2.8,1.4-4.6,3.8-4.6
			c1.3,0,2.3,0.5,2.9,1.5c0.6,1,0.6,2.3,0.6,3.4H51c0,1.9,0.9,3,2.7,3c1.2,0,2.3-0.5,2.3-0.5h0.1V163.6z M55.1,158.8
			c0-1.7-0.6-2.7-1.9-2.7c-1.4,0-2,1-2.2,2.7H55.1z"/>
		<path class="st2" d="M65.3,156.5c0,0-0.4-0.1-0.8-0.1c-2,0-2,1.5-2,2.3v5.1h-1.5v-8.7h1.2l0.3,1.7c0.3-1.4,1.4-1.7,2.7-1.7h0.3
			V156.5z"/>
		<path class="st2" d="M70.6,151.4v12.5h-1.5v-12.5H70.6z"/>
		<path class="st2" d="M79.5,163.7c-0.8,2-1.4,3.4-3.5,3.4c-0.6,0-1.1-0.1-1.1-0.1v-1.2H75c0,0,0.5,0.2,1,0.2c1,0,1.5-0.9,2-2.4
			l-3.5-8.4h1.8l2.5,6.6l2.4-6.6h1.4L79.5,163.7z"/>
		<path class="st2" d="M99.5,153.4h-0.1c0,0-1.3-0.5-2.6-0.5c-1.5,0-2.3,0.7-2.3,1.7c0,2.8,5.6,2,5.6,6c0,2.4-1.9,3.4-4.3,3.4
			c-1.7,0-2.9-0.6-2.9-0.6v-1.3H93c0,0,1.5,0.7,2.9,0.7c1.6,0,2.5-0.8,2.5-2c0-3-5.6-2.2-5.6-6c0-1.9,1.4-3.1,3.9-3.1
			c1.5,0,2.8,0.4,2.8,0.4V153.4z"/>
		<path class="st2" d="M104.4,155.4c0,0,1-0.4,2.6-0.4c1.2,0,2.3,0.2,2.9,1.1c0.5,0.7,0.5,1.6,0.5,2.3v3.2c0,0.5,0,1.2,0.8,1.2
			c0.2,0,0.5-0.1,0.5-0.1v1.1c0,0-0.4,0.1-1,0.1c-1,0-1.6-0.4-1.7-1.6c-0.3,1-1.3,1.6-2.6,1.6c-1.7,0-2.7-1-2.7-2.5
			c0-1.7,1.4-2.7,4.3-2.7c0.5,0,0.9,0,0.9,0c0-0.9,0-1.5-0.3-1.9c-0.3-0.4-0.8-0.7-1.7-0.7c-1.2,0-2.2,0.4-2.2,0.4h-0.1V155.4z
			 M106.7,162.8c0.7,0,1.4-0.3,1.7-1c0.3-0.6,0.3-1.4,0.3-1.8v-0.2h-0.5c-1.1,0-3.1,0-3.1,1.6C105.2,162.2,105.7,162.8,106.7,162.8z
			"/>
		<path class="st2" d="M121,163.8l-0.3-1.5c-0.2,1-1,1.7-2.5,1.7c-1.2,0-2-0.5-2.4-1.1c-0.5-0.7-0.5-1.6-0.5-2.7v-5.1h1.5v5.1
			c0,0.8,0,1.3,0.3,1.7c0.3,0.4,0.8,0.7,1.6,0.7c1.8,0,1.9-1.4,1.9-2.2v-5.4h1.5v8.7H121z"/>
		<path class="st2" d="M134.2,151.4v12.5H133l-0.3-1.5c-0.3,1.1-1.3,1.7-2.7,1.7c-2.3,0-3.6-1.7-3.6-4.5c0-2.8,1.4-4.6,3.8-4.6
			c1.3,0,2.2,0.6,2.5,1.6v-5.2H134.2z M128,159.5c0,2,0.7,3.4,2.4,3.4c1.7,0,2.4-1.4,2.4-3.4c0-1.9-0.7-3.3-2.4-3.3
			C128.7,156.2,128,157.6,128,159.5z"/>
		<path class="st2" d="M140.7,152.6c0,0.5-0.4,1-1,1c-0.6,0-1-0.4-1-1c0-0.5,0.4-1,1-1C140.3,151.6,140.7,152.1,140.7,152.6z
			 M140.5,155.2v8.7H139v-8.7H140.5z"/>
		<path class="st2" d="M156.6,164.1c-3.5,0-5.4-2.3-5.4-6.2c0-3.9,1.9-6.3,5.4-6.3c3.5,0,5.4,2.3,5.4,6.2
			C162.1,161.7,160.1,164.1,156.6,164.1z M160.4,157.8c0-3.4-1.4-5-3.7-5c-2.4,0-3.7,1.7-3.7,5c0,3.4,1.4,5,3.7,5
			C159,162.9,160.4,161.2,160.4,157.8z"/>
		<path class="st2" d="M168,158.8v5.1h-1.6v-12h3.6c0.8,0,2,0,2.9,0.6c0.8,0.5,1.3,1.4,1.3,2.8c0,2-1.1,3-2.5,3.3l3.1,5.3h-1.8
			l-2.9-5.1H168z M168,157.6h2.1c0.4,0,1.2,0,1.8-0.4c0.5-0.3,0.8-0.9,0.8-1.9c0-0.8-0.2-1.5-0.8-1.9c-0.6-0.4-1.4-0.4-1.8-0.4H168
			V157.6z"/>
		<path class="st2" d="M180.5,151.8v12H179v-12H180.5z"/>
		<path class="st2" d="M186.5,151.8l3.2,4.9l3.2-4.9h1.6l-3.9,5.8l4.2,6.2h-1.9l-3.4-5.2l-3.4,5.2h-1.6l4.1-6.2l-3.9-5.8H186.5z"/>
		<path class="st2" d="M206.7,151.8v10.8h5v1.2h-6.6v-12H206.7z"/>
		<path class="st2" d="M221.3,163.6c0,0-1.1,0.4-2.5,0.4c-1.6,0-2.5-0.4-3.1-1.1c-0.7-0.8-1.1-1.9-1.1-3.4c0-2.8,1.4-4.6,3.8-4.6
			c1.3,0,2.3,0.5,2.9,1.5c0.6,1,0.6,2.3,0.6,3.4h-5.6c0,1.9,0.9,3,2.7,3c1.2,0,2.3-0.5,2.3-0.5h0.1V163.6z M220.2,158.8
			c0-1.7-0.6-2.7-1.9-2.7c-1.4,0-2,1-2.2,2.7H220.2z"/>
		<path class="st2" d="M226.1,155.4c0,0,1-0.4,2.6-0.4c1.2,0,2.3,0.2,2.9,1.1c0.5,0.7,0.5,1.6,0.5,2.3v3.2c0,0.5,0,1.2,0.8,1.2
			c0.2,0,0.5-0.1,0.5-0.1v1.1c0,0-0.4,0.1-1,0.1c-1,0-1.6-0.4-1.7-1.6c-0.3,1-1.3,1.6-2.6,1.6c-1.7,0-2.7-1-2.7-2.5
			c0-1.7,1.4-2.7,4.3-2.7c0.5,0,0.9,0,0.9,0c0-0.9,0-1.5-0.3-1.9c-0.3-0.4-0.8-0.7-1.7-0.7c-1.2,0-2.2,0.4-2.2,0.4h-0.1V155.4z
			 M228.4,162.8c0.7,0,1.4-0.3,1.7-1c0.3-0.6,0.3-1.4,0.3-1.8v-0.2H230c-1.1,0-3.1,0-3.1,1.6C226.9,162.2,227.5,162.8,228.4,162.8z"
			/>
		<path class="st2" d="M241.9,156.6h-0.1c0,0-1-0.4-2-0.4c-1,0-1.5,0.4-1.5,1.1c0,1.7,4,1.2,4,4.2c0,1.8-1.4,2.5-3.3,2.5
			c-1.4,0-2.3-0.4-2.3-0.4v-1.3h0.1c0,0,1.2,0.5,2.3,0.5c1.1,0,1.6-0.5,1.6-1.2c0-1.9-4-1.4-4-4.1c0-1.5,1.2-2.4,3.1-2.4
			c1.2,0,2,0.3,2,0.3V156.6z"/>
		<path class="st2" d="M248.2,152.6c0,0.5-0.4,1-1,1c-0.6,0-1-0.4-1-1c0-0.5,0.4-1,1-1C247.9,151.6,248.2,152.1,248.2,152.6z
			 M248,155.2v8.7h-1.5v-8.7H248z"/>
		<path class="st2" d="M254,155.2l0.3,1.5c0.2-1,1-1.7,2.5-1.7c1.3,0,2.1,0.5,2.5,1.1c0.5,0.7,0.5,1.7,0.5,2.6v5.1h-1.5v-5.1
			c0-0.6,0-1.2-0.3-1.7c-0.3-0.5-0.9-0.7-1.6-0.7c-1.8,0-2,1.4-2,2.2v5.4h-1.5v-8.7H254z"/>
		<path class="st2" d="M267.7,160.5c-0.4,0-0.8,0-1.2-0.1c-0.3,0.1-0.7,0.4-0.7,1c0,0.8,0.8,0.8,1.3,0.8h1.6c1,0,3.2,0,3.2,2.2
			c0,1.8-1.6,2.8-4.5,2.8c-2.6,0-3.8-0.8-3.8-2.2c0-1.6,1.6-1.8,1.7-1.8c0,0-1.1-0.3-1.1-1.4c0-1.1,1.1-1.5,1.6-1.6
			c-0.9-0.4-1.4-1.3-1.4-2.4c0-1.7,1.3-2.8,3.3-2.8c0.9,0,1.7,0.2,2.3,0.7c0.4-0.9,1.3-0.9,1.8-0.9h0.2v1.3c0,0-0.3-0.1-0.7-0.1
			c-0.5,0-0.7,0.1-0.8,0.2c0.3,0.4,0.5,1,0.5,1.6C271,159.5,269.7,160.5,267.7,160.5z M265.9,163.4c0,0-0.8,0.4-0.8,1.3
			c0,0.9,0.7,1.4,2.4,1.4c1.9,0,2.9-0.6,2.9-1.6c0-1.1-1.3-1.1-1.9-1.1H265.9z M269.4,157.8c0-1.1-0.6-1.7-1.7-1.7
			c-1.1,0-1.7,0.6-1.7,1.7c0,1.1,0.6,1.7,1.7,1.7C268.8,159.5,269.4,158.8,269.4,157.8z"/>
		<path class="st2" d="M290.1,163.6c0,0-1.1,0.4-2.6,0.4c-4,0-5.6-2.8-5.6-6.1c0-3.3,1.6-6.1,5.6-6.1c1.5,0,2.6,0.4,2.6,0.4v1.2
			h-0.1c0,0-1.1-0.5-2.4-0.5c-2.8,0-4.1,2.2-4.1,4.9c0,2.7,1.2,5,4.1,5c1.3,0,2.4-0.5,2.4-0.5h0.1V163.6z"/>
		<path class="st2" d="M297.4,164.1c-2.5,0-4-1.6-4-4.5c0-2.9,1.5-4.6,4-4.6c2.5,0,4,1.6,4,4.5C301.4,162.4,299.9,164.1,297.4,164.1
			z M299.7,159.5c0-2.2-0.8-3.4-2.4-3.4c-1.6,0-2.4,1.2-2.4,3.4c0,2.2,0.8,3.4,2.4,3.4S299.7,161.7,299.7,159.5z"/>
		<path class="st2" d="M306.8,155.2l0.3,1.5c0.2-0.9,0.9-1.7,2.5-1.7c1.6,0,2.3,0.7,2.7,1.8c0.4-1.2,1.2-1.8,2.6-1.8
			c1.3,0,2,0.6,2.4,1.1c0.5,0.7,0.5,1.5,0.5,2.6v5.1h-1.5v-5.1c0-0.8,0-1.3-0.3-1.7c-0.3-0.4-0.8-0.7-1.5-0.7
			c-1.7,0-1.9,1.5-1.9,2.2v5.4h-1.5v-5.1c0-0.8,0-1.3-0.3-1.7c-0.3-0.4-0.8-0.7-1.5-0.7c-1.7,0-1.9,1.5-1.9,2.2v5.4h-1.5v-8.7H306.8
			z"/>
		<path class="st2" d="M322.4,167v-11.9h1.2l0.3,1.5c0.3-1.1,1.3-1.7,2.7-1.7c2.3,0,3.6,1.7,3.6,4.5c0,2.8-1.4,4.6-3.8,4.6
			c-1.3,0-2.2-0.6-2.5-1.6v4.6H322.4z M328.6,159.5c0-1.9-0.7-3.3-2.4-3.3c-1.7,0-2.4,1.4-2.4,3.4c0,2,0.7,3.3,2.4,3.3
			C327.9,162.9,328.6,161.4,328.6,159.5z"/>
		<path class="st2" d="M334.5,155.4c0,0,1-0.4,2.6-0.4c1.2,0,2.3,0.2,2.9,1.1c0.5,0.7,0.5,1.6,0.5,2.3v3.2c0,0.5,0,1.2,0.8,1.2
			c0.2,0,0.5-0.1,0.5-0.1v1.1c0,0-0.4,0.1-1,0.1c-1,0-1.6-0.4-1.7-1.6c-0.3,1-1.3,1.6-2.6,1.6c-1.7,0-2.7-1-2.7-2.5
			c0-1.7,1.4-2.7,4.3-2.7c0.5,0,0.9,0,0.9,0c0-0.9,0-1.5-0.3-1.9c-0.3-0.4-0.8-0.7-1.7-0.7c-1.2,0-2.2,0.4-2.2,0.4h-0.1V155.4z
			 M336.8,162.8c0.7,0,1.4-0.3,1.7-1c0.3-0.6,0.3-1.4,0.3-1.8v-0.2h-0.5c-1.1,0-3.1,0-3.1,1.6C335.3,162.2,335.8,162.8,336.8,162.8z
			"/>
		<path class="st2" d="M346.6,155.2l0.3,1.5c0.2-1,1-1.7,2.5-1.7c1.3,0,2.1,0.5,2.5,1.1c0.5,0.7,0.5,1.7,0.5,2.6v5.1H351v-5.1
			c0-0.6,0-1.2-0.3-1.7c-0.3-0.5-0.9-0.7-1.6-0.7c-1.8,0-2,1.4-2,2.2v5.4h-1.5v-8.7H346.6z"/>
		<path class="st2" d="M361.1,163.7c-0.8,2-1.4,3.4-3.5,3.4c-0.6,0-1.1-0.1-1.1-0.1v-1.2h0.1c0,0,0.5,0.2,1,0.2c1,0,1.5-0.9,2-2.4
			l-3.5-8.4h1.8l2.5,6.6l2.4-6.6h1.4L361.1,163.7z"/>
	</g>
</g>
</svg>
